<svg width="6" height="11" viewBox="0 0 6 11" fill="none" xmlns="http://www.w3.org/2000/svg">
<path d="M2.63239 4.58356C3.50373 4.58356 4.21009 4.42626 4.21009 4.23221C4.21009 4.03816 3.50373 3.88086 2.63239 3.88086C1.76105 3.88086 1.05469 4.03816 1.05469 4.23221C1.05469 4.42626 1.76105 4.58356 2.63239 4.58356Z" fill="#F39980"/>
<path d="M2.63175 2.65583C4.08523 2.65583 5.2635 2.49852 5.2635 2.30448C5.2635 2.11043 4.08523 1.95312 2.63175 1.95312C1.17828 1.95312 0 2.11043 0 2.30448C0 2.49852 1.17828 2.65583 2.63175 2.65583Z" fill="#F39980"/>
<path d="M4.60889 10.3587C4.60889 10.3771 4.59603 10.4234 4.50325 10.4897C4.41406 10.5535 4.27555 10.617 4.09125 10.6728C3.72448 10.7837 3.20899 10.8545 2.63334 10.8545C2.05768 10.8545 1.54219 10.7837 1.17542 10.6728C0.99112 10.617 0.852612 10.5535 0.763421 10.4897C0.670642 10.4234 0.657778 10.3771 0.657778 10.3587C0.657778 10.3403 0.670642 10.294 0.763421 10.2276C0.852611 10.1638 0.99112 10.1004 1.17542 10.0446C1.54219 9.93364 2.05768 9.86286 2.63334 9.86286C3.20899 9.86286 3.72448 9.93364 4.09125 10.0446C4.27555 10.1004 4.41406 10.1638 4.50325 10.2276C4.59603 10.294 4.60889 10.3403 4.60889 10.3587Z" fill="#FFFAE6" stroke="#F39980" stroke-width="0.292119"/>
<path d="M2.63223 10.5167V0.541016H0.382234C0.121644 1.09187 -0.00896489 1.69521 0.000477886 2.30453C0.00021662 2.70309 0.0999796 3.09535 0.290626 3.44536C0.481273 3.79537 0.756707 4.09194 1.09169 4.3079C1.5748 4.64574 2.48358 5.3856 2.48358 5.3856C2.48358 5.3856 2.46331 10.3991 2.48358 10.4532C2.50385 10.5072 2.63223 10.5167 2.63223 10.5167Z" fill="#F39980"/>
<path d="M2.63281 10.5167V0.541016H4.88281C5.1434 1.09187 5.27401 1.69521 5.26456 2.30453C5.26483 2.70309 5.16506 3.09535 4.97442 3.44536C4.78377 3.79537 4.50834 4.09194 4.17335 4.3079C3.69024 4.64574 2.77808 5.3856 2.77808 5.3856C2.77808 5.3856 2.77808 10.389 2.77808 10.4532C2.77808 10.5173 2.63281 10.5167 2.63281 10.5167Z" fill="#F39980"/>
<path d="M4.82082 2.19149C4.82107 2.53103 4.82082 2.64033 4.5287 3.21391C4.23658 3.50603 4.09052 3.65209 3.50628 4.09026C3.01054 4.46207 2.48386 4.82056 2.48386 4.82056C2.48386 4.82056 1.79706 4.39102 1.32715 4.08595C1.00822 3.90063 0.746555 3.64739 0.565994 3.34931C0.385432 3.05122 0.29171 2.71776 0.293362 2.37928C0.284994 1.86027 0.410248 1.34642 0.659564 0.876953H4.38264C4.63195 1.34642 4.82919 1.67248 4.82082 2.19149Z" fill="#FFFAE6"/>
<path d="M2.6289 1.4606C4.8789 1.60666 4.8789 0.839071 4.8789 0.54054C4.8789 0.242008 3.87154 0 2.6289 0C1.38626 0 0.378906 0.242008 0.378906 0.54054C0.378906 0.839071 1.38626 1.4606 2.6289 1.4606Z" fill="#F39980"/>
<path d="M2.62772 0.877207C3.59571 0.877207 4.38043 0.746421 4.38043 0.585088C4.38043 0.423755 3.59571 0.292969 2.62772 0.292969C1.65972 0.292969 0.875 0.423755 0.875 0.585088C0.875 0.746421 1.65972 0.877207 2.62772 0.877207Z" fill="#FFFAE6"/>
</svg>
