<svg width="5" height="14" viewBox="0 0 5 14" fill="none" xmlns="http://www.w3.org/2000/svg">
<path d="M4.18511 4.11734V13.0575C4.18511 13.5788 3.24869 13.9991 2.09213 13.9991C0.93556 13.9991 0.00242179 13.5788 0.00242179 13.0575V4.11734C-0.000807263 4.0881 -0.000807263 4.05861 0.00242179 4.02937C0.115635 3.73329 0.306083 3.47232 0.554309 3.27312C0.802535 3.07392 1.09964 2.94363 1.41527 2.89556V1.67703C1.39584 1.66601 1.3794 1.65046 1.36738 1.63173C1.35536 1.61299 1.34811 1.59164 1.34627 1.56952V0.259766H2.82484V1.563C2.82299 1.58513 2.81575 1.60648 2.80373 1.62521C2.79171 1.64394 2.77527 1.65949 2.75584 1.67052V2.89882C3.07146 2.94562 3.36878 3.07506 3.61713 3.27379C3.86549 3.47252 4.05588 3.73335 4.16869 4.02937C4.17743 4.058 4.18294 4.0875 4.18511 4.11734Z" fill="#F39980"/>
<path d="M2.13214 13.522C1.06327 13.522 0.290243 13.1367 0.290243 12.7893V4.40424C0.288669 4.38849 0.288669 4.0909 0.290243 4.07515C0.395554 3.82687 0.563082 3.60948 0.776896 3.44363C0.99071 3.27778 1.2437 3.16899 1.51181 3.12762L1.6645 3.10551V1.38354L1.5977 1.33617V0.28125H2.66975C2.66975 0.28125 2.67954 1.26726 2.66975 1.33617C2.65997 1.40507 2.3252 1.65894 2.3252 1.65894V2.03857V3.09603L2.48108 3.11814C2.74805 3.16052 2.99973 3.26977 3.21235 3.43556C3.42498 3.60135 3.59153 3.81821 3.69628 4.06567C3.69902 4.08241 3.69902 4.38119 3.69628 4.39792V12.7893C3.6931 13.1367 3.22009 13.522 2.13214 13.522Z" fill="#FFFAE6"/>
<path d="M2.27215 0.704296C2.67863 0.704296 2.82746 0.404598 2.82746 0.260647C2.82746 0.116696 2.49794 0 2.09146 0C1.68499 0 1.35547 0.116696 1.35547 0.260647C1.35547 0.404598 1.56189 0.704296 2.27215 0.704296Z" fill="#F39980"/>
<path d="M2.09789 0.423465C2.38278 0.423465 2.61374 0.35053 2.61374 0.260561C2.61374 0.170591 2.38278 0.0976562 2.09789 0.0976562C1.81299 0.0976562 1.58203 0.170591 1.58203 0.260561C1.58203 0.35053 1.81299 0.423465 2.09789 0.423465Z" fill="#FEE2DA"/>
</svg>
