<svg width="14" height="14" viewBox="0 0 14 14" fill="none" xmlns="http://www.w3.org/2000/svg">
<g clip-path="url(#clip0_289_32166)">
<path d="M2.24281e-06 6.94662C0.00110712 5.5705 0.410254 4.22561 1.1757 3.08203C1.94115 1.93844 3.02853 1.04751 4.30032 0.521913C5.57211 -0.00368454 6.9712 -0.140349 8.32067 0.129202C9.67013 0.398753 10.9094 1.06241 11.8816 2.03626C12.8539 3.0101 13.5156 4.25039 13.783 5.60029C14.0504 6.95018 13.9115 8.34905 13.3838 9.62C12.8562 10.8909 11.9635 11.9769 10.8187 12.7405C9.67388 13.5041 8.32833 13.9111 6.95221 13.91C6.0385 13.9093 5.13388 13.7286 4.29 13.3782C3.44613 13.0279 2.67952 12.5148 2.03394 11.8682C1.38837 11.2216 0.876479 10.4541 0.527495 9.60968C0.178511 8.76524 -0.000731366 7.86033 2.24281e-06 6.94662ZM2.23364 11.4139C2.26255 11.3709 2.29426 11.3299 2.32857 11.2911L3.90887 9.68842C3.94164 9.65568 3.97713 9.62579 4.01497 9.59907C4.05775 9.57289 4.10809 9.56186 4.1579 9.56776C4.20771 9.57367 4.25408 9.59616 4.28954 9.63163C4.32501 9.66709 4.3475 9.71346 4.35341 9.76327C4.35932 9.81308 4.34829 9.86342 4.3221 9.9062C4.29466 9.94847 4.26074 9.98616 4.22158 10.0179L2.54635 11.6931C3.7898 12.7653 5.3932 13.3267 7.03387 13.2643C8.67454 13.2019 10.2307 12.5205 11.3892 11.357C12.5477 10.1936 13.2225 8.63454 13.2779 6.99362C13.3332 5.3527 12.765 3.75171 11.6875 2.51285C11.6607 2.55562 11.6289 2.595 11.5926 2.63011L10.0067 4.22158C9.97969 4.25231 9.94977 4.28036 9.91737 4.30534C9.87654 4.34146 9.8239 4.36139 9.76939 4.36139C9.71488 4.36139 9.66224 4.34146 9.62141 4.30534C9.58413 4.26509 9.56341 4.21224 9.56341 4.15736C9.56341 4.10249 9.58413 4.04964 9.62141 4.00939C9.64355 3.97301 9.66978 3.93929 9.69959 3.90887L11.3748 2.23364C10.1303 1.17661 8.53328 0.627171 6.90185 0.694756C5.27042 0.762342 3.72431 1.44199 2.57149 2.59834C1.41867 3.75468 0.743734 5.30285 0.681124 6.93448C0.618514 8.56611 1.17282 10.1615 2.23364 11.4027" fill="#E94A4C"/>
<path d="M7.37638 2.50167C7.35557 2.47393 7.32859 2.45141 7.29758 2.4359C7.26656 2.4204 7.23236 2.41232 7.19769 2.41232C7.16301 2.41232 7.12881 2.4204 7.09779 2.4359C7.06678 2.45141 7.0398 2.47393 7.01899 2.50167C6.91848 2.65244 4.49498 6.2486 4.49498 7.67255C4.47836 8.03818 4.53603 8.40338 4.6645 8.74611C4.79297 9.08883 4.98958 9.40195 5.24244 9.66657C5.49531 9.93119 5.79918 10.1418 6.13572 10.2857C6.47226 10.4296 6.83447 10.5038 7.20048 10.5038C7.56649 10.5038 7.9287 10.4296 8.26523 10.2857C8.60177 10.1418 8.90565 9.93119 9.15851 9.66657C9.41138 9.40195 9.60798 9.08883 9.73645 8.74611C9.86492 8.40338 9.92259 8.03818 9.90597 7.67255C9.90597 6.2486 7.48247 2.65244 7.37638 2.50167ZM7.19769 9.94528C6.59492 9.94528 6.01684 9.70583 5.59062 9.27961C5.1644 8.85339 4.92496 8.27531 4.92496 7.67255C4.92496 6.68416 6.43266 4.18807 7.19769 3.00982C7.96829 4.18807 9.49275 6.70091 9.49275 7.67255C9.49277 7.9729 9.43325 8.27027 9.31764 8.54747C9.20203 8.82468 9.03262 9.07622 8.81921 9.28756C8.60579 9.4989 8.35261 9.66584 8.07428 9.77873C7.79596 9.89162 7.49802 9.94823 7.19769 9.94528ZM7.41547 9.29752C7.41547 9.35528 7.39252 9.41067 7.35168 9.45152C7.31084 9.49236 7.25544 9.5153 7.19769 9.5153C6.70992 9.51382 6.24265 9.31902 5.89827 8.9736C5.55389 8.62818 5.36051 8.16031 5.36052 7.67255C5.35548 7.64141 5.35727 7.60956 5.36576 7.57918C5.37425 7.5488 5.38923 7.52063 5.40967 7.49662C5.43012 7.4726 5.45554 7.45331 5.48417 7.44008C5.5128 7.42686 5.54396 7.42001 5.5755 7.42001C5.60704 7.42001 5.63821 7.42686 5.66684 7.44008C5.69547 7.45331 5.72089 7.4726 5.74133 7.49662C5.76178 7.52063 5.77676 7.5488 5.78525 7.57918C5.79374 7.60956 5.79553 7.64141 5.79049 7.67255C5.79049 8.04576 5.93875 8.40368 6.20265 8.66758C6.46655 8.93148 6.82447 9.07974 7.19769 9.07974C7.22649 9.07897 7.25516 9.08408 7.28193 9.09475C7.3087 9.10542 7.33301 9.12144 7.35339 9.14182C7.37377 9.16219 7.38978 9.18651 7.40045 9.21328C7.41113 9.24005 7.41623 9.26871 7.41547 9.29752Z" fill="#E94A4C"/>
</g>
<defs>
<clipPath id="clip0_289_32166">
<rect width="13.91" height="13.91" fill="white"/>
</clipPath>
</defs>
</svg>
