<?xml version="1.0" standalone="no"?>
<!DOCTYPE svg PUBLIC "-//W3C//DTD SVG 20010904//EN"
 "http://www.w3.org/TR/2001/REC-SVG-20010904/DTD/svg10.dtd">
<svg version="1.0" xmlns="http://www.w3.org/2000/svg"
 width="844.000000pt" height="844.000000pt" viewBox="0 0 844.000000 844.000000"
 preserveAspectRatio="xMidYMid meet">
<metadata>
Created by potrace 1.14, written by Peter Selinger 2001-2017
</metadata>
<g transform="translate(0.000000,844.000000) scale(0.100000,-0.100000)"
fill="#000000" stroke="none">
<path d="M2825 7183 c-50 -26 -82 -70 -100 -138 -5 -16 -10 -34 -11 -40 -2 -5
-23 -75 -48 -155 -25 -80 -57 -183 -71 -230 -15 -47 -28 -89 -29 -95 -1 -5
-17 -57 -35 -115 -18 -58 -52 -168 -76 -245 -24 -77 -60 -194 -81 -260 -21
-66 -39 -125 -40 -132 -2 -11 -62 -204 -101 -328 -9 -27 -16 -51 -15 -52 1 -2
-6 -22 -14 -45 -9 -24 -17 -50 -19 -58 -2 -8 -14 -46 -26 -85 -12 -38 -24 -77
-26 -85 -2 -8 -5 -19 -6 -25 -5 -15 -48 -156 -59 -190 -36 -114 -168 -541
-188 -610 -8 -29 -51 -167 -71 -230 -6 -16 -12 -37 -14 -45 -2 -8 -17 -58 -33
-110 -25 -79 -28 -98 -18 -115 12 -20 182 -110 286 -152 104 -42 115 -46 120
-48 3 0 34 -10 70 -22 107 -35 263 -71 375 -87 183 -26 484 -27 640 -1 67 11
91 15 110 19 108 22 244 63 339 101 l69 28 76 -28 c102 -36 274 -86 279 -80 3
2 12 0 22 -5 9 -5 32 -11 51 -14 19 -2 48 -7 64 -10 128 -25 234 -31 545 -30
344 1 645 15 845 40 22 3 56 6 75 8 65 7 136 16 160 21 13 3 42 7 65 11 32 4
139 26 247 49 154 33 327 99 456 173 50 29 62 41 62 61 0 21 -23 100 -96 331
-4 14 -8 27 -9 30 0 3 -10 34 -22 70 -30 92 -93 291 -142 450 -23 74 -46 146
-51 160 -21 61 -104 326 -106 337 -2 10 -20 70 -50 163 -3 8 -5 16 -5 18 1 1
-5 18 -13 37 -9 20 -15 38 -15 40 -1 7 -59 199 -81 265 -18 53 -103 320 -105
330 -3 14 -57 187 -62 200 -3 8 -7 20 -9 25 -1 6 -14 48 -29 95 -15 47 -28 90
-29 95 -2 6 -18 57 -36 115 -19 58 -35 107 -35 110 -1 3 -22 70 -47 150 -25
80 -56 178 -69 218 -30 98 -44 108 -150 106 -46 -1 -93 -4 -105 -8 -28 -9 -43
-44 -33 -76 4 -14 31 -98 58 -187 28 -90 74 -236 102 -325 28 -89 52 -167 54
-173 1 -5 5 -17 8 -25 3 -8 16 -46 28 -85 11 -38 29 -95 39 -125 10 -30 28
-89 41 -130 12 -41 40 -129 62 -195 21 -66 40 -124 41 -130 2 -5 9 -30 16 -55
8 -25 14 -47 15 -50 1 -4 17 -55 31 -100 3 -8 6 -17 6 -20 1 -3 14 -42 29 -87
15 -46 25 -83 22 -83 -3 0 -1 -6 5 -13 6 -7 13 -24 16 -39 2 -14 10 -37 17
-50 7 -12 11 -23 9 -23 -2 0 10 -40 25 -90 16 -49 29 -92 30 -95 1 -6 1 -5 75
-240 32 -102 82 -259 110 -350 85 -273 151 -482 170 -540 10 -30 17 -56 16
-57 -2 -3 -139 -6 -163 -4 -9 1 -43 87 -58 151 -1 3 -4 12 -8 20 -3 8 -27 83
-52 165 -76 246 -102 328 -115 360 -6 17 -11 31 -10 33 1 3 -58 193 -120 387
-21 66 -51 161 -66 210 -15 50 -30 99 -35 110 -4 11 -24 74 -44 140 -20 66
-43 138 -51 160 -16 49 -85 266 -88 280 -1 6 -13 44 -26 85 -13 41 -24 77 -25
80 -1 3 -4 12 -8 20 -3 8 -24 76 -47 150 -71 232 -131 424 -138 440 -7 18 -5
12 -26 85 -10 33 -31 98 -46 145 -16 47 -43 132 -60 190 -41 137 -48 143 -147
143 -128 -1 -130 -1 -147 -28 -15 -23 -14 -29 10 -107 15 -46 28 -90 29 -98 2
-8 4 -16 5 -17 2 -2 3 -6 5 -10 1 -5 4 -15 8 -23 3 -8 14 -44 25 -80 28 -93
120 -384 144 -455 10 -33 21 -67 23 -75 2 -8 10 -35 18 -60 8 -25 38 -119 67
-210 28 -91 55 -176 60 -190 5 -14 27 -86 50 -160 23 -74 50 -160 60 -190 10
-30 37 -116 60 -190 23 -74 59 -189 80 -255 21 -66 59 -187 85 -270 26 -82 61
-192 77 -244 17 -51 31 -98 33 -105 1 -6 5 -18 8 -26 5 -15 33 -102 116 -370
24 -74 47 -146 52 -159 5 -13 8 -26 5 -28 -3 -4 -125 -6 -181 -4 -12 1 -21 8
-22 19 0 16 -43 161 -103 347 -16 50 -43 137 -60 195 -17 58 -34 112 -36 120
-3 8 -5 16 -5 17 0 2 -7 22 -15 45 -9 24 -17 48 -18 53 -1 6 -7 26 -13 45 -6
19 -28 89 -48 155 -20 66 -44 140 -52 165 -8 25 -16 52 -18 61 -2 9 -15 54
-30 100 -25 79 -35 110 -84 272 -10 34 -60 195 -111 357 -50 162 -96 311 -102
330 -12 44 -96 317 -108 350 -5 14 -23 72 -40 130 -17 58 -35 116 -40 130 -5
14 -23 72 -40 130 -89 292 -96 307 -160 340 -44 23 -82 25 -131 9 -49 -16
-104 -80 -113 -129 -3 -18 -54 -188 -63 -210 -3 -8 -7 -20 -8 -26 -3 -12 -60
-196 -117 -379 l-41 -130 -34 105 c-19 58 -36 113 -38 123 -2 10 -31 102 -64
205 -32 103 -74 234 -92 291 -18 57 -39 110 -47 117 -14 14 -39 17 -152 14
-50 -1 -70 -6 -87 -22 -20 -19 -21 -22 -7 -67 8 -25 16 -53 18 -61 5 -18 36
-119 43 -140 4 -8 7 -19 9 -25 1 -5 28 -91 59 -190 32 -99 58 -184 59 -190 3
-13 35 -115 45 -140 5 -11 20 -58 34 -105 14 -47 47 -151 72 -232 26 -81 44
-152 41 -157 -4 -5 -22 -63 -42 -128 -33 -109 -54 -157 -54 -123 0 14 -55 199
-71 235 -4 11 -51 160 -104 330 -53 171 -117 375 -142 455 -25 79 -46 149 -48
155 -1 5 -5 17 -9 25 -7 17 -86 268 -90 287 -1 7 -5 16 -9 19 -4 4 -7 15 -7
24 0 38 -32 50 -136 50 -104 -1 -134 -11 -136 -47 0 -10 13 -63 30 -118 41
-131 102 -325 142 -450 34 -108 80 -254 84 -270 2 -5 6 -17 9 -25 3 -8 14 -44
25 -80 46 -150 105 -339 122 -390 10 -30 25 -77 33 -105 9 -27 30 -95 47 -150
17 -55 33 -107 35 -115 2 -8 11 -35 20 -60 9 -25 18 -52 20 -61 2 -9 15 -54
29 -99 l26 -82 -42 -139 c-23 -76 -46 -135 -50 -131 -4 4 -11 25 -17 47 -5 22
-44 150 -86 285 -42 135 -78 250 -79 255 -2 6 -6 17 -9 25 -3 8 -20 62 -37
120 -17 58 -35 116 -40 130 -4 14 -24 77 -43 140 -79 258 -120 390 -153 493
-19 60 -34 116 -34 126 0 9 -4 21 -9 27 -6 5 -12 21 -15 36 -2 15 -7 32 -11
38 -3 5 -8 18 -10 27 -12 55 -152 498 -165 523 -6 11 -26 31 -45 46 -43 33
-124 41 -170 17z m102 -1538 c14 -10 32 -49 53 -117 17 -57 34 -110 37 -118
14 -41 65 -207 68 -221 2 -9 11 -39 20 -65 9 -27 18 -56 20 -64 2 -8 10 -34
19 -58 8 -23 16 -44 16 -47 0 -3 2 -10 5 -17 2 -7 16 -53 30 -103 14 -49 34
-115 44 -145 10 -30 26 -82 36 -115 9 -33 20 -67 23 -75 3 -8 6 -19 8 -25 1
-5 24 -77 50 -160 52 -167 62 -218 44 -240 -10 -12 -83 -33 -175 -49 -16 -3
-41 -8 -55 -11 -110 -22 -411 -22 -510 0 -14 4 -45 9 -70 12 -25 2 -53 9 -62
14 -9 5 -21 8 -25 7 -20 -5 -94 25 -106 43 -16 22 -14 37 26 164 35 111 70
228 73 240 1 6 9 29 18 53 8 23 15 45 15 47 0 3 13 45 28 93 15 48 27 89 28
92 1 6 8 28 42 135 14 44 26 87 28 95 4 18 84 279 92 300 3 8 7 20 8 25 6 26
68 225 82 263 14 37 36 58 63 61 3 1 15 -6 27 -14z m1717 -4 c14 -16 26 -45
41 -101 2 -8 20 -67 40 -130 20 -63 45 -142 55 -175 10 -33 46 -150 80 -260
34 -110 70 -228 81 -262 10 -35 28 -93 40 -130 11 -38 25 -84 30 -103 6 -19
13 -42 16 -50 7 -18 6 -15 22 -67 6 -24 25 -84 41 -135 35 -110 37 -129 10
-153 -25 -22 -208 -61 -333 -71 -131 -10 -305 -5 -384 11 -15 3 -47 8 -70 10
-23 3 -53 9 -67 15 -15 5 -26 8 -26 5 0 -2 -18 2 -39 10 -22 7 -41 12 -43 9
-3 -2 -15 7 -27 20 -21 22 -21 27 -11 67 7 24 14 52 15 61 2 10 7 23 10 28 3
5 8 18 10 27 2 10 10 38 18 63 13 37 37 120 42 140 0 3 10 34 22 70 11 36 39
124 61 195 109 354 124 401 127 415 2 8 36 119 75 245 71 231 88 265 130 265
9 0 24 -8 34 -19z"/>
<path d="M2861 4769 c-19 -8 -51 -62 -51 -88 0 -5 12 -23 26 -40 50 -60 135
-30 140 48 3 63 -54 102 -115 80z"/>
<path d="M3085 4428 c-75 -21 -105 -100 -63 -167 17 -27 71 -53 103 -48 60 8
108 75 97 135 -6 30 -54 78 -84 84 -13 2 -37 1 -53 -4z"/>
<path d="M2624 4409 c-32 -21 -53 -55 -54 -87 -1 -56 56 -112 113 -112 34 0
89 40 100 74 31 92 -78 178 -159 125z"/>
<path d="M4562 4808 c-29 -15 -49 -77 -33 -107 18 -33 56 -54 88 -46 47 10 64
29 66 75 2 69 -58 108 -121 78z"/>
<path d="M4771 4422 c-60 -28 -78 -106 -39 -164 19 -27 44 -40 88 -43 77 -6
135 88 98 158 -15 29 -47 57 -67 58 -9 0 -23 2 -32 4 -9 1 -31 -4 -48 -13z"/>
<path d="M4343 4419 c-32 -12 -55 -47 -60 -92 -5 -38 -1 -48 24 -77 56 -63
160 -42 182 36 25 92 -57 166 -146 133z"/>
<path d="M2355 3060 c-112 -27 -190 -72 -265 -151 -39 -41 -56 -68 -101 -161
-32 -65 -43 -212 -24 -306 21 -100 89 -226 145 -268 8 -7 26 -22 40 -34 65
-57 197 -101 305 -103 127 -1 269 53 358 137 l38 36 -32 35 c-18 19 -36 35
-40 35 -5 0 -23 -13 -41 -28 -127 -110 -303 -139 -440 -72 -35 16 -80 46 -100
66 -34 32 -89 113 -95 139 -1 5 -9 35 -18 65 -53 185 42 400 212 477 142 65
292 44 429 -61 36 -28 48 -33 58 -23 6 7 21 25 34 39 l23 26 -28 26 c-45 43
-115 84 -179 106 -68 24 -218 34 -279 20z"/>
<path d="M1437 3052 c-19 -4 -17 54 -18 -615 0 -202 2 -371 5 -376 6 -9 92 -8
102 1 5 5 8 655 4 954 0 29 -3 32 -38 36 -21 1 -45 2 -55 0z"/>
<path d="M3247 3052 l-27 -3 2 -497 3 -497 45 0 c25 0 50 3 55 6 6 5 10 86 9
216 0 114 3 213 7 218 5 7 108 10 286 10 l278 0 2 -145 c1 -80 2 -181 3 -226
l0 -80 43 2 c23 1 49 3 57 3 13 1 15 62 12 493 -1 270 -4 493 -6 495 -3 4 -78
6 -101 4 -6 -1 -10 -81 -10 -219 l0 -217 -286 -3 -286 -2 1 216 c1 119 -1 219
-4 222 -5 8 -39 9 -83 4z"/>
<path d="M4481 3045 c-9 -12 -8 -966 1 -980 7 -11 704 -13 715 -2 3 4 7 27 8
52 l1 45 -85 1 c-48 1 -89 1 -94 0 -9 -1 -234 -2 -354 -2 l-83 1 0 175 0 174
168 0 c92 0 213 0 268 0 l102 1 3 28 c2 15 3 37 1 50 l-3 22 -270 0 -269 0 0
170 0 170 303 2 302 3 1 40 c1 22 -1 45 -5 50 -4 6 -133 10 -354 10 -221 0
-351 -4 -356 -10z"/>
<path d="M5606 3050 c-3 -5 0 -981 3 -990 0 -3 151 -5 333 -4 l333 1 1 51 c0
31 -4 52 -10 53 -6 0 -132 1 -281 2 l-270 2 -1 435 c-1 239 -2 440 -3 445 -1
10 -101 15 -105 5z"/>
<path d="M6659 3040 c-4 -104 0 -972 4 -976 8 -8 656 -9 663 -1 7 7 8 87 0 94
-3 3 -130 6 -281 6 l-275 1 0 443 c0 244 -3 444 -7 444 -5 1 -29 2 -55 3 -37
1 -48 -2 -49 -14z"/>
<path d="M7715 3040 c-2 -8 -4 -232 -3 -497 l0 -483 27 -1 c32 -1 683 0 694 0
4 1 7 24 7 51 0 41 -3 50 -17 51 -10 0 -149 0 -308 1 l-290 0 1 166 c1 92 2
170 3 175 0 4 123 7 271 7 l270 0 0 50 0 50 -52 1 c-29 0 -152 1 -273 2 l-220
2 0 155 c-1 85 1 162 3 170 3 13 44 15 303 14 215 -1 299 2 300 10 6 69 4 86
-11 87 -8 1 -169 2 -358 3 -296 1 -343 -1 -347 -14z"/>
<path d="M0 2552 l0 -498 53 0 52 1 5 398 5 399 178 -261 c98 -144 182 -259
187 -256 5 3 46 61 91 128 45 67 115 170 156 229 40 59 73 110 73 113 0 3 9
14 20 25 19 19 27 13 20 -15 -1 -5 -1 -35 0 -65 5 -147 4 -250 -3 -250 -5 0
-5 -5 -2 -10 4 -6 6 -35 5 -65 -1 -74 -1 -75 3 -112 2 -18 -1 -33 -6 -33 -4 0
-5 -5 -1 -12 4 -6 8 -57 8 -112 l1 -101 45 -1 c25 0 50 1 55 3 6 2 10 176 10
496 l-1 492 -59 2 -60 2 -179 -270 c-99 -149 -182 -266 -185 -262 -3 5 -33 49
-65 99 -33 49 -62 91 -65 94 -8 6 -29 41 -38 60 -4 8 -9 17 -13 20 -3 3 -44
62 -90 132 l-85 127 -57 1 -58 0 0 -498z"/>
<path d="M1701 1496 c0 -150 2 -166 17 -166 16 0 18 15 17 162 0 145 -2 163
-17 166 -15 3 -17 -12 -17 -162z"/>
<path d="M4453 1497 c0 -152 1 -163 18 -164 17 -2 19 6 18 75 0 42 2 84 5 92
17 42 95 49 116 10 5 -10 10 -54 11 -98 1 -72 3 -80 20 -79 16 1 18 10 15 94
-2 79 -5 96 -24 116 -30 31 -90 35 -120 7 -25 -24 -24 -25 -24 63 1 39 -2 47
-17 47 -17 0 -18 -13 -18 -163z"/>
<path d="M4730 1640 c0 -22 9 -30 26 -23 22 8 17 39 -6 39 -12 0 -20 -7 -20
-16z"/>
<path d="M6607 1646 c-6 -15 3 -30 21 -33 11 -3 14 1 16 29 1 15 -31 19 -37 4z"/>
<path d="M6989 1658 c-1 -2 -2 -76 -2 -166 -2 -148 -1 -162 16 -162 19 0 18
-7 18 165 1 168 1 165 -16 165 -8 0 -15 -1 -16 -2z"/>
<path d="M4287 1633 c-2 -5 -4 -20 -3 -36 1 -18 -4 -29 -16 -33 -23 -7 -24
-36 -1 -32 14 3 16 -9 17 -83 1 -102 12 -121 65 -117 23 2 37 9 39 19 2 12 -3
15 -20 12 -37 -6 -48 9 -51 74 -4 83 3 100 42 97 24 -1 31 2 31 15 0 13 -7 17
-27 16 -31 -2 -56 12 -47 26 3 5 2 18 -1 29 -6 20 -20 26 -28 13z"/>
<path d="M1461 1556 c-31 -17 -12 -40 22 -27 50 19 107 -6 107 -47 0 -6 -24
-10 -54 -9 -71 2 -104 -16 -112 -61 -6 -31 -3 -39 23 -63 34 -30 78 -31 120
-4 21 14 23 14 23 0 0 -8 8 -15 18 -15 16 0 18 9 17 83 -1 96 -9 123 -38 139
-29 15 -100 18 -126 4z m127 -115 c10 -3 -2 -51 -17 -65 -43 -39 -111 -24
-111 24 0 34 31 50 85 45 22 -2 41 -4 43 -4z"/>
<path d="M1800 1560 c0 -10 78 -231 84 -237 10 -10 36 33 56 94 12 38 25 74
29 81 4 7 19 -27 35 -78 39 -125 52 -123 100 20 36 106 40 144 12 120 -7 -5
-24 -46 -37 -90 -13 -44 -26 -80 -29 -80 -3 0 -18 38 -34 85 -16 47 -32 88
-36 90 -9 6 -31 -10 -34 -26 -2 -8 -6 -21 -9 -29 -10 -26 -31 -94 -33 -108 -3
-19 -14 -28 -15 -14 -2 14 -6 31 -8 35 -1 1 -12 33 -24 71 -15 47 -28 70 -40
72 -9 1 -17 -1 -17 -6z"/>
<path d="M2223 1557 c-44 -16 -30 -39 17 -29 19 5 41 7 48 6 6 -1 18 -2 25 -3
12 -1 37 -40 37 -57 0 -4 -21 -4 -47 -1 -74 7 -134 -26 -127 -70 1 -7 2 -20 3
-28 1 -19 57 -54 79 -50 10 2 25 4 34 4 9 1 24 8 32 17 15 14 17 14 22 0 3 -9
13 -16 21 -16 12 0 14 16 11 95 -2 80 -6 98 -24 116 -25 25 -85 32 -131 16z
m119 -125 c11 -11 -6 -50 -30 -68 -19 -14 -67 -11 -87 6 -41 34 5 85 69 76 21
-2 43 -9 48 -14z"/>
<path d="M2434 1563 c-8 -3 -4 -19 11 -51 86 -183 84 -176 70 -197 -7 -11 -27
-22 -44 -25 -41 -6 -41 -23 -1 -31 49 -10 73 20 130 160 27 69 50 128 50 133
0 4 -9 8 -20 8 -12 0 -20 -7 -20 -17 0 -10 -6 -29 -13 -43 -7 -14 -19 -44 -27
-68 -7 -24 -17 -45 -21 -48 -7 -4 -33 43 -37 69 -3 15 -52 106 -59 110 -5 2
-13 2 -19 0z"/>
<path d="M2739 1559 c-32 -12 -53 -53 -39 -78 12 -23 54 -51 77 -51 26 -1 50
-22 50 -43 0 -29 -41 -39 -89 -22 -33 11 -44 11 -50 2 -10 -16 46 -39 96 -40
57 0 90 45 70 97 -3 8 -27 22 -54 31 -58 19 -87 47 -67 63 23 19 74 23 87 7
14 -16 30 -11 30 10 0 23 -70 39 -111 24z"/>
<path d="M3099 1558 c-29 -10 -50 -46 -43 -75 6 -21 56 -53 83 -53 24 0 53
-33 46 -53 -9 -22 -43 -28 -86 -13 -31 11 -41 11 -49 1 -14 -17 61 -44 105
-38 54 7 85 72 50 106 -8 9 -37 23 -65 32 -37 12 -50 22 -50 36 0 26 42 42 76
29 34 -13 44 -13 44 4 0 12 -26 23 -75 31 -5 1 -22 -2 -36 -7z"/>
<path d="M3329 1548 c-31 -19 -59 -71 -59 -110 0 -35 37 -88 72 -103 115 -48
217 77 146 180 -35 52 -105 66 -159 33z m101 -25 c35 -20 50 -52 45 -94 -6
-42 -36 -69 -80 -71 -99 -4 -119 140 -25 175 24 9 30 8 60 -10z"/>
<path d="M3579 1561 c-1 -3 -2 -57 -3 -118 -1 -101 1 -113 17 -113 15 0 17 10
17 79 0 91 17 124 64 124 47 0 58 -22 60 -114 2 -70 5 -85 19 -87 15 -3 17 7
17 81 0 92 12 116 64 121 44 5 62 -34 61 -126 -1 -69 0 -78 17 -78 16 0 18 9
18 88 0 75 -3 91 -23 115 -30 37 -70 43 -115 17 -19 -12 -38 -18 -41 -13 -25
33 -90 36 -123 6 -17 -15 -18 -15 -18 4 0 17 -28 30 -31 14z"/>
<path d="M4060 1552 c-62 -33 -83 -117 -44 -176 9 -15 22 -26 29 -26 7 0 15
-5 17 -11 6 -17 86 -13 114 6 21 13 23 19 13 31 -7 9 -15 11 -18 5 -12 -18
-55 -28 -86 -20 -32 10 -55 33 -55 58 0 14 14 16 90 15 89 -2 90 -2 90 22 0
38 -27 82 -60 99 -37 19 -48 19 -90 -3z m89 -36 c12 -11 21 -27 21 -36 0 -15
-11 -18 -70 -19 -63 -1 -70 1 -70 18 0 26 47 62 76 58 13 -1 32 -11 43 -21z"/>
<path d="M4735 1556 c-2 -6 -3 -58 -2 -116 2 -86 5 -105 17 -105 12 0 15 20
16 116 1 96 -1 116 -13 116 -8 0 -16 -5 -18 -11z"/>
<path d="M4850 1448 c0 -107 2 -119 17 -116 14 2 17 16 17 85 1 92 12 113 64
119 46 5 66 -25 68 -99 1 -34 3 -72 3 -84 1 -13 7 -23 16 -23 16 0 17 8 15
110 -1 85 -6 97 -40 115 -40 21 -73 19 -104 -6 -15 -12 -26 -17 -25 -12 3 19
-2 30 -16 30 -12 0 -15 -20 -15 -119z"/>
<path d="M5158 1547 c-49 -41 -60 -86 -33 -137 30 -59 119 -76 168 -33 16 15
17 14 17 -13 0 -16 -4 -34 -8 -40 -21 -33 -90 -44 -137 -22 -19 9 -28 9 -37 0
-15 -15 47 -42 96 -42 97 0 120 35 121 184 1 61 0 114 -2 118 -6 12 -33 -4
-33 -20 0 -13 -3 -12 -20 3 -31 28 -101 29 -132 2z m134 -37 c23 -29 23 -72
-1 -101 -24 -30 -89 -33 -120 -5 -32 29 -29 89 5 115 34 27 90 23 116 -9z"/>
<path d="M5577 1549 c-30 -22 -32 -62 -5 -85 10 -10 40 -25 66 -33 38 -13 46
-20 44 -36 -7 -41 -43 -50 -100 -22 -16 8 -25 8 -33 0 -8 -8 -3 -16 19 -27 57
-30 125 -18 142 24 18 43 5 65 -53 90 -71 30 -79 38 -66 61 10 20 49 25 78 10
23 -13 51 3 34 20 -20 20 -100 19 -126 -2z"/>
<path d="M5789 1568 c-1 -2 -3 -72 -4 -155 -3 -139 -1 -153 15 -153 13 0 17 8
15 38 -1 21 2 47 6 57 4 11 8 15 8 9 1 -6 14 -17 31 -24 84 -35 171 43 150
134 -10 43 -24 62 -61 82 -38 19 -72 18 -102 -6 -25 -20 -25 -20 -30 0 -4 16
-23 28 -28 18z m164 -53 c21 -21 27 -35 27 -69 0 -47 -17 -70 -60 -81 -37 -9
-77 10 -94 44 -13 25 -14 36 -3 68 20 63 82 81 130 38z"/>
<path d="M6125 1558 c-71 -41 -87 -135 -31 -194 35 -38 119 -46 159 -14 34 27
26 45 -13 25 -57 -29 -117 -11 -134 41 -6 19 -3 20 84 19 99 -1 106 4 89 57
-22 67 -96 99 -154 66z m105 -42 c36 -40 22 -53 -57 -51 -62 1 -68 3 -65 20 8
53 83 72 122 31z"/>
<path d="M6388 1552 c-63 -38 -73 -129 -22 -183 23 -24 66 -45 85 -41 4 1 19
3 34 6 37 7 70 37 53 47 -7 5 -23 2 -35 -6 -44 -29 -103 -11 -127 38 -13 27
-13 35 0 65 8 19 14 36 14 37 0 5 33 16 59 21 13 3 34 -3 48 -12 19 -12 28
-13 37 -4 8 8 5 16 -14 30 -31 24 -95 25 -132 2z"/>
<path d="M6615 1560 c-6 -9 -9 -122 -6 -207 1 -27 27 -31 33 -5 3 14 2 164 -1
210 -1 15 -17 16 -26 2z"/>
<path d="M6757 1563 c-20 -3 -27 -9 -25 -21 3 -9 11 -15 19 -13 63 16 115 2
121 -33 4 -20 1 -22 -59 -22 -76 0 -107 -22 -105 -74 1 -50 36 -73 96 -66 27
3 53 11 57 18 6 9 10 8 15 -5 3 -9 12 -17 20 -17 11 0 14 19 14 85 0 46 -5 94
-10 107 -19 40 -63 53 -143 41z m117 -129 c17 -45 -45 -89 -101 -71 -38 13
-42 70 -5 80 32 9 101 3 106 -9z"/>
</g>
</svg>
