<svg width="15" height="15" viewBox="0 0 15 15" fill="none" xmlns="http://www.w3.org/2000/svg">
<g clip-path="url(#clip0_356_9447)">
<path d="M0.851565 7.91601C0.852648 6.51617 1.26881 5.14808 2.04742 3.98476C2.82603 2.82143 3.93212 1.91512 5.22583 1.38042C6.51953 0.845724 7.94273 0.706662 9.31547 0.98082C10.6882 1.25498 11.9488 1.93004 12.9379 2.92065C13.927 3.91125 14.6001 5.1729 14.8721 6.54606C15.1441 7.91922 15.0029 9.34221 14.4662 10.6351C13.9295 11.928 13.0215 13.0326 11.8569 13.8095C10.6924 14.5863 9.32367 15.0003 7.92383 14.9992C6.99437 14.9985 6.07415 14.8147 5.21571 14.4584C4.35728 14.102 3.57744 13.5801 2.92071 12.9223C2.26399 12.2646 1.74326 11.4839 1.38823 10.625C1.0332 9.76598 0.850845 8.84548 0.851565 7.91601ZM3.10681 12.4484C3.13734 12.4116 3.17026 12.3769 3.20534 12.3444C3.75273 11.797 4.30011 11.2496 4.8475 10.7296C4.87806 10.6943 4.91301 10.663 4.95151 10.6365C4.99393 10.6051 5.04651 10.5905 5.09909 10.5955C5.15166 10.6006 5.20049 10.6249 5.23615 10.6639C5.27233 10.7025 5.29246 10.7534 5.29246 10.8062C5.29246 10.8591 5.27233 10.91 5.23615 10.9485C5.20755 10.992 5.17248 11.0307 5.13214 11.0635C4.58476 11.6109 3.99358 12.2075 3.41882 12.7768C4.68093 13.8933 6.32193 14.4853 8.00614 14.4318C9.69034 14.3783 11.2905 13.6833 12.4792 12.489C13.6679 11.2947 14.3554 9.69136 14.4009 8.00693C14.4465 6.32249 13.8468 4.68428 12.7244 3.42743C12.6916 3.46574 12.6642 3.51501 12.6314 3.54785L11.0166 5.19002C10.9884 5.22205 10.9572 5.25137 10.9235 5.2776C10.8795 5.30903 10.8258 5.32394 10.7719 5.3197C10.718 5.31547 10.6673 5.29237 10.6287 5.25446C10.5902 5.21654 10.5662 5.16625 10.5611 5.11242C10.5559 5.05858 10.5699 5.00466 10.6006 4.96011C10.6298 4.90553 10.6646 4.85416 10.7046 4.80685L12.4343 3.09352C11.1733 1.96687 9.52824 1.36662 7.83795 1.41638C6.14766 1.46614 4.54079 2.16213 3.34822 3.36101C2.15564 4.5599 1.46816 6.17042 1.42732 7.86095C1.38648 9.55148 1.99541 11.1933 3.1287 12.4484" fill="#E94A4C"/>
<path d="M7.72741 7.63063L5.16016 6.1472L7.92447 4.54883L9.75275 5.60529L10.4479 6.00488L10.6888 6.1472L9.78559 6.66722L7.92447 7.7401L7.72741 7.63063Z" fill="#E94A4C"/>
<path d="M7.44765 7.91072L7.73229 8.08041V11.2991L6.0956 10.3575L5.40589 9.95796L4.95703 9.69521V6.47656L7.44765 7.91072Z" fill="#E94A4C"/>
<path d="M10.8964 6.47656V9.69521L8.12109 11.2991V8.08041L8.7287 7.72461L10.8964 6.47656Z" fill="#E94A4C"/>
</g>
<defs>
<clipPath id="clip0_356_9447">
<rect width="14.15" height="14.15" fill="white" transform="translate(0.851562 0.849609)"/>
</clipPath>
</defs>
</svg>
