<svg width="13" height="16" viewBox="0 0 13 16" fill="none" xmlns="http://www.w3.org/2000/svg">
<g clip-path="url(#clip0_356_4550)">
<path d="M8.5828 6.80684H5.74654C5.69031 6.80686 5.6363 6.78495 5.59598 6.74575C5.55567 6.70656 5.53224 6.65318 5.53067 6.59697C5.53066 6.5689 5.53628 6.54111 5.5472 6.51525C5.55812 6.48939 5.57412 6.46598 5.59425 6.44641C5.61438 6.42684 5.63823 6.41151 5.66438 6.40132C5.69054 6.39113 5.71848 6.3863 5.74654 6.3871H8.5828V5.44568H1.38123V6.36312H2.58049C2.63615 6.36312 2.68953 6.38523 2.72889 6.42459C2.76825 6.46394 2.79036 6.51733 2.79036 6.57299C2.79036 6.62865 2.76825 6.68203 2.72889 6.72139C2.68953 6.76075 2.63615 6.78286 2.58049 6.78286H1.38123C1.32296 6.78286 1.26526 6.77138 1.21142 6.74908C1.15758 6.72678 1.10867 6.6941 1.06746 6.65289C1.02626 6.61169 0.993576 6.56277 0.971277 6.50894C0.948977 6.4551 0.9375 6.3974 0.9375 6.33913V5.44568C0.9375 5.328 0.98425 5.21513 1.06746 5.13192C1.15068 5.0487 1.26354 5.00195 1.38123 5.00195H8.5768C8.69448 5.00195 8.80735 5.0487 8.89056 5.13192C8.97378 5.21513 9.02053 5.328 9.02053 5.44568V6.36312C9.02054 6.47977 8.97461 6.59173 8.89269 6.67478C8.81077 6.75782 8.69944 6.80527 8.5828 6.80684Z" fill="#FBCB00"/>
<path d="M9.73913 9.89449H0.222983C0.172656 9.88601 0.12696 9.85998 0.0940056 9.82101C0.0610508 9.78204 0.0429688 9.73265 0.0429688 9.68162C0.0429688 9.63058 0.0610508 9.5812 0.0940056 9.54223C0.12696 9.50326 0.172656 9.47723 0.222983 9.46875H9.73913C9.78945 9.47723 9.83515 9.50326 9.8681 9.54223C9.90106 9.5812 9.91914 9.63058 9.91914 9.68162C9.91914 9.73265 9.90106 9.78204 9.8681 9.82101C9.83515 9.85998 9.78945 9.88601 9.73913 9.89449Z" fill="#FBCB00"/>
<path d="M2.5788 3.64681C2.4854 3.64686 2.39295 3.62811 2.30696 3.59166C2.22096 3.55522 2.14319 3.50183 2.07828 3.43467C2.01336 3.36752 1.96264 3.28799 1.92913 3.20081C1.89562 3.11363 1.88001 3.02059 1.88323 2.92725V1.84792C1.88323 1.66344 1.95651 1.48652 2.08695 1.35607C2.2174 1.22563 2.39432 1.15234 2.5788 1.15234C2.76328 1.15234 2.9402 1.22563 3.07064 1.35607C3.20109 1.48652 3.27437 1.66344 3.27437 1.84792V2.92725C3.27759 3.02059 3.26198 3.11363 3.22847 3.20081C3.19496 3.28799 3.14423 3.36752 3.07932 3.43467C3.01441 3.50183 2.93663 3.55522 2.85064 3.59166C2.76465 3.62811 2.6722 3.64686 2.5788 3.64681ZM2.5788 1.57808C2.50667 1.57806 2.43741 1.6063 2.38585 1.65674C2.33429 1.70718 2.30454 1.77581 2.30297 1.84792V2.92725C2.30454 2.99936 2.33429 3.06799 2.38585 3.11843C2.43741 3.16887 2.50667 3.1971 2.5788 3.19709C2.65036 3.19709 2.719 3.16866 2.7696 3.11805C2.8202 3.06745 2.84863 2.99882 2.84863 2.92725V1.84792C2.85197 1.81052 2.84747 1.77283 2.83541 1.73728C2.82335 1.70172 2.804 1.66907 2.77861 1.64141C2.75321 1.61376 2.72232 1.59171 2.68792 1.57667C2.65351 1.56164 2.61635 1.55395 2.5788 1.5541V1.57808Z" fill="#FBCB00"/>
<path d="M5.48254 3.64615C5.39016 3.64461 5.29901 3.62468 5.21441 3.58753C5.12982 3.55037 5.05347 3.49673 4.98983 3.42975C4.92619 3.36276 4.87654 3.28376 4.84377 3.19737C4.811 3.11098 4.79577 3.01893 4.79897 2.92659V1.84725C4.78599 1.74907 4.79413 1.64924 4.82284 1.55446C4.85156 1.45967 4.90018 1.37211 4.96547 1.29763C5.03075 1.22315 5.11119 1.16347 5.20139 1.12258C5.2916 1.0817 5.3895 1.06055 5.48854 1.06055C5.58758 1.06055 5.68548 1.0817 5.77569 1.12258C5.8659 1.16347 5.94633 1.22315 6.01161 1.29763C6.0769 1.37211 6.12552 1.45967 6.15424 1.55446C6.18295 1.64924 6.19109 1.74907 6.17812 1.84725V2.92659C6.18134 3.01993 6.16573 3.11297 6.13222 3.20015C6.0987 3.28732 6.04798 3.36686 5.98307 3.43401C5.91815 3.50117 5.84038 3.55456 5.75439 3.591C5.66839 3.62745 5.57594 3.6462 5.48254 3.64615ZM5.48254 1.57742C5.44711 1.57742 5.41202 1.5844 5.37928 1.59796C5.34655 1.61152 5.3168 1.6314 5.29174 1.65645C5.26669 1.68151 5.24681 1.71126 5.23325 1.74399C5.21969 1.77673 5.21271 1.81182 5.21271 1.84725V2.92659C5.21271 2.99815 5.24114 3.06679 5.29174 3.11739C5.34235 3.168 5.41098 3.19642 5.48254 3.19642C5.55411 3.19642 5.62274 3.168 5.67335 3.11739C5.72395 3.06679 5.75238 2.99815 5.75238 2.92659V1.84725C5.75572 1.80986 5.75121 1.77217 5.73915 1.73661C5.7271 1.70106 5.70775 1.66841 5.68235 1.64075C5.65696 1.6131 5.62607 1.59105 5.59166 1.57601C5.55726 1.56098 5.52009 1.55329 5.48254 1.55344V1.57742Z" fill="#FBCB00"/>
<path d="M3.54713 4.10231C3.36266 4.10231 3.18574 4.02903 3.05529 3.89858C2.92485 3.76814 2.85156 3.59122 2.85156 3.40674V1.34401C2.85156 1.15953 2.92485 0.982611 3.05529 0.852166C3.18574 0.721721 3.36266 0.648438 3.54713 0.648438C3.73161 0.648438 3.90853 0.721721 4.03898 0.852166C4.16942 0.982611 4.24271 1.15953 4.24271 1.34401V3.40674C4.24271 3.59122 4.16942 3.76814 4.03898 3.89858C3.90853 4.02903 3.73161 4.10231 3.54713 4.10231ZM3.54713 1.10416C3.47557 1.10416 3.40694 1.13259 3.35633 1.18319C3.30573 1.23379 3.2773 1.30243 3.2773 1.37399V3.40674C3.2773 3.4783 3.30573 3.54694 3.35633 3.59754C3.40694 3.64814 3.47557 3.67657 3.54713 3.67657C3.61926 3.67659 3.68853 3.64835 3.74009 3.59792C3.79165 3.54748 3.8214 3.47885 3.82296 3.40674V1.34401C3.8214 1.2719 3.79165 1.20327 3.74009 1.15283C3.68853 1.10239 3.61926 1.07416 3.54713 1.07418V1.10416Z" fill="#FBCB00"/>
<path d="M4.51588 4.10231C4.33141 4.10231 4.15449 4.02903 4.02404 3.89858C3.8936 3.76814 3.82031 3.59122 3.82031 3.40674V1.34401C3.82031 1.25267 3.8383 1.16222 3.87326 1.07783C3.90822 0.993435 3.95945 0.916756 4.02404 0.852166C4.08863 0.787576 4.16531 0.736341 4.2497 0.701385C4.33409 0.666429 4.42454 0.648438 4.51588 0.648438C4.60723 0.648437 4.69768 0.666429 4.78207 0.701385C4.86646 0.736341 4.94314 0.787576 5.00773 0.852166C5.07232 0.916756 5.12355 0.993435 5.15851 1.07783C5.19346 1.16222 5.21146 1.25267 5.21146 1.34401V3.40674C5.21146 3.59122 5.13817 3.76814 5.00773 3.89858C4.87728 4.02903 4.70036 4.10231 4.51588 4.10231ZM4.51588 1.10416C4.44376 1.10414 4.37449 1.13238 4.32293 1.18281C4.27137 1.23325 4.24162 1.30188 4.24005 1.37399V3.40674C4.24162 3.47885 4.27137 3.54748 4.32293 3.59792C4.37449 3.64835 4.44376 3.67659 4.51588 3.67657C4.55232 3.67819 4.5887 3.67241 4.62283 3.65958C4.65697 3.64675 4.68815 3.62713 4.71449 3.60191C4.74083 3.57669 4.76178 3.54639 4.77609 3.51285C4.79039 3.4793 4.79775 3.44321 4.79771 3.40674V1.34401C4.79775 1.30754 4.79039 1.27145 4.77609 1.2379C4.76178 1.20436 4.74083 1.17406 4.71449 1.14884C4.68815 1.12362 4.65697 1.104 4.62283 1.09117C4.5887 1.07834 4.55232 1.07255 4.51588 1.07418V1.10416Z" fill="#FBCB00"/>
<path d="M11.4658 2.99927H5.99712C5.94089 2.99929 5.88687 2.97737 5.84656 2.93818C5.80624 2.89898 5.78281 2.84561 5.78125 2.7894V1.96191C5.78124 1.93384 5.78686 1.90605 5.79778 1.88019C5.8087 1.85432 5.8247 1.83092 5.84482 1.81135C5.86495 1.79178 5.8888 1.77645 5.91496 1.76626C5.94112 1.75607 5.96906 1.75124 5.99712 1.75204H7.04047C7.09614 1.75204 7.14952 1.77415 7.18888 1.81351C7.22823 1.85287 7.25035 1.90625 7.25035 1.96191C7.25035 2.01757 7.22823 2.07095 7.18888 2.11031C7.14952 2.14967 7.09614 2.17178 7.04047 2.17178H6.17701V2.57353H11.4658C11.5161 2.58201 11.5618 2.60804 11.5947 2.64701C11.6277 2.68598 11.6458 2.73537 11.6458 2.7864C11.6458 2.83744 11.6277 2.88682 11.5947 2.92579C11.5618 2.96476 11.5161 2.99079 11.4658 2.99927Z" fill="#FBCB00"/>
<path d="M11.3955 2.17178H7.97759C7.92136 2.1718 7.86734 2.14988 7.82703 2.11069C7.78671 2.07149 7.76328 2.01812 7.76172 1.96191C7.76171 1.93384 7.76733 1.90605 7.77825 1.88019C7.78917 1.85432 7.80517 1.83092 7.82529 1.81135C7.84542 1.79178 7.86927 1.77645 7.89543 1.76626C7.92159 1.75607 7.94953 1.75124 7.97759 1.75204H11.3955C11.423 1.75204 11.4503 1.75747 11.4758 1.76801C11.5013 1.77856 11.5244 1.79402 11.5439 1.81351C11.5634 1.833 11.5788 1.85613 11.5894 1.8816C11.5999 1.90706 11.6054 1.93435 11.6054 1.96191C11.6054 1.98947 11.5999 2.01676 11.5894 2.04222C11.5788 2.06769 11.5634 2.09082 11.5439 2.11031C11.5244 2.1298 11.5013 2.14526 11.4758 2.15581C11.4503 2.16635 11.423 2.17178 11.3955 2.17178Z" fill="#FBCB00"/>
<path d="M12.0472 3.28769C11.8586 3.28769 11.6743 3.23177 11.5175 3.12701C11.3607 3.02224 11.2385 2.87334 11.1663 2.69913C11.0942 2.52491 11.0753 2.33322 11.1121 2.14827C11.1489 1.96333 11.2397 1.79345 11.373 1.66011C11.5063 1.52677 11.6762 1.43597 11.8612 1.39918C12.0461 1.36239 12.2378 1.38127 12.412 1.45343C12.5862 1.5256 12.7351 1.6478 12.8399 1.80459C12.9447 1.96137 13.0006 2.14571 13.0006 2.33427C13.0006 2.58713 12.9001 2.82964 12.7213 3.00844C12.5425 3.18724 12.3 3.28769 12.0472 3.28769ZM12.0472 1.8066C11.9431 1.80778 11.8416 1.83973 11.7557 1.89843C11.6697 1.95712 11.603 2.03994 11.564 2.13646C11.5249 2.23298 11.5153 2.33888 11.5364 2.44084C11.5574 2.5428 11.6081 2.63627 11.6822 2.70946C11.7562 2.78266 11.8502 2.83233 11.9524 2.85221C12.0546 2.87208 12.1604 2.86129 12.2565 2.82118C12.3525 2.78107 12.4346 2.71344 12.4923 2.6268C12.55 2.54016 12.5808 2.43838 12.5808 2.33427C12.5793 2.19378 12.5223 2.05957 12.4224 1.96078C12.3225 1.86199 12.1877 1.80659 12.0472 1.8066Z" fill="#FBCB00"/>
<path d="M0.380209 11.4417C0.332963 11.4416 0.287133 11.4256 0.250134 11.3962C0.213136 11.3668 0.187133 11.3258 0.176334 11.2798C0.082109 10.9513 0.0238036 10.6135 0.00244131 10.2724C-0.0788603 9.60451 0.066869 8.92866 0.416187 8.3536C0.631733 8.01978 0.915855 7.73566 1.24967 7.52011C1.25993 7.51361 1.26852 7.5048 1.27476 7.49439C1.28101 7.48398 1.28474 7.47226 1.28565 7.46015V6.59668C1.28482 6.5689 1.28968 6.54123 1.29994 6.51539C1.31019 6.48956 1.32562 6.46609 1.34527 6.44643C1.36493 6.42678 1.3884 6.41135 1.41424 6.40109C1.44007 6.39084 1.46774 6.38598 1.49552 6.38681H2.60484C2.6605 6.38681 2.71388 6.40892 2.75324 6.44828C2.7926 6.48764 2.81471 6.54102 2.81471 6.59668C2.81471 6.65234 2.7926 6.70572 2.75324 6.74508C2.71388 6.78444 2.6605 6.80655 2.60484 6.80655H1.72338V7.46015C1.72475 7.5445 1.70385 7.62772 1.6628 7.70141C1.62174 7.7751 1.56197 7.83667 1.48953 7.87989C1.10726 8.13236 0.805286 8.48902 0.619326 8.9077C0.433366 9.32637 0.371197 9.78954 0.440172 10.2424C0.46463 10.5508 0.518849 10.856 0.602072 11.1539C0.609167 11.1807 0.610721 11.2086 0.606639 11.2361C0.602558 11.2635 0.592926 11.2898 0.578334 11.3134C0.563741 11.3369 0.544494 11.3573 0.52177 11.3732C0.499045 11.389 0.47332 11.4001 0.446168 11.4057L0.380209 11.4417Z" fill="#FBCB00"/>
<path d="M9.68669 10.914H9.65071C9.5959 10.9052 9.54682 10.875 9.51422 10.83C9.48163 10.7851 9.46818 10.729 9.47682 10.6742C9.5128 10.4103 9.5188 10.2544 9.5188 10.2544C9.5919 9.80214 9.53157 9.33835 9.3452 8.91982C9.15883 8.50128 8.8545 8.14615 8.46944 7.89787C8.39781 7.85376 8.3387 7.792 8.29775 7.71851C8.25681 7.64502 8.2354 7.56226 8.23559 7.47813V6.80655H5.74712C5.69089 6.80657 5.63687 6.78465 5.59656 6.74545C5.55624 6.70626 5.53281 6.65288 5.53125 6.59668C5.53124 6.5686 5.53686 6.54081 5.54778 6.51495C5.5587 6.48909 5.5747 6.46568 5.59482 6.44611C5.61495 6.42654 5.6388 6.41121 5.66496 6.40103C5.69112 6.39084 5.71906 6.386 5.74712 6.3868H8.45145C8.50711 6.3868 8.5605 6.40892 8.59985 6.44827C8.63921 6.48763 8.66132 6.54101 8.66132 6.59668V7.46014C8.6611 7.47251 8.66435 7.48468 8.67071 7.49529C8.67707 7.50589 8.68629 7.51449 8.6973 7.52011C9.03037 7.73457 9.31274 8.01899 9.52479 8.35359C9.87619 8.92792 10.024 9.60382 9.94453 10.2724C9.93568 10.4272 9.91766 10.5814 9.89057 10.7341C9.88467 10.7839 9.86061 10.8298 9.823 10.863C9.78538 10.8962 9.73685 10.9144 9.68669 10.914Z" fill="#FBCB00"/>
<path d="M6.83631 15.0986H3.1186C3.08521 15.1075 3.05006 15.1075 3.01666 15.0986C2.39482 14.7477 1.84213 14.2865 1.38567 13.7374C1.01697 13.2836 0.716025 12.7786 0.492218 12.2384C0.47727 12.212 0.468193 12.1828 0.46561 12.1526C0.463026 12.1225 0.466997 12.0921 0.47725 12.0636C0.487503 12.0352 0.503795 12.0092 0.525009 11.9876C0.546223 11.9661 0.571856 11.9493 0.600151 11.9386C0.651952 11.9184 0.709542 11.919 0.760925 11.9402C0.812308 11.9614 0.853521 12.0016 0.875981 12.0525C1.33115 13.159 2.14112 14.0829 3.17856 14.6789H6.77635C7.04212 14.5238 7.2948 14.3473 7.53189 14.1512C7.57624 14.1255 7.62827 14.1165 7.67867 14.1257C7.72908 14.1349 7.77457 14.1617 7.80701 14.2014C7.83946 14.241 7.85674 14.2909 7.85577 14.3422C7.8548 14.3934 7.83564 14.4426 7.80172 14.481C7.53013 14.7033 7.24141 14.9038 6.93825 15.0806C6.90604 15.0942 6.87121 15.1003 6.83631 15.0986Z" fill="#FBCB00"/>
<path d="M9.72241 13.3433C9.68401 13.3464 9.64574 13.3358 9.61447 13.3133L8.56512 12.7137C8.53293 12.6958 8.50601 12.6697 8.48706 12.6382C8.46812 12.6066 8.45781 12.5706 8.45718 12.5338V11.5504C8.4547 11.4405 8.48247 11.332 8.53746 11.2368C8.59245 11.1417 8.67255 11.0634 8.76899 11.0107L9.4106 10.6389C9.50175 10.5863 9.60516 10.5586 9.71041 10.5586C9.81567 10.5586 9.91907 10.5863 10.0102 10.6389L10.6518 11.0107C10.7483 11.0634 10.8284 11.1417 10.8834 11.2368C10.9384 11.332 10.9661 11.4405 10.9636 11.5504V12.5278C10.963 12.5646 10.9527 12.6006 10.9338 12.6322C10.9148 12.6637 10.8879 12.6898 10.8557 12.7077L9.80635 13.3073C9.78259 13.3274 9.75335 13.3399 9.72241 13.3433ZM8.87693 12.4018L9.72241 12.8875L10.5619 12.4018V11.5504C10.5614 11.515 10.5518 11.4804 10.5339 11.4499C10.516 11.4195 10.4906 11.3941 10.46 11.3765L9.81835 11.0047C9.78827 10.9873 9.75414 10.9782 9.71941 10.9782C9.68467 10.9782 9.65055 10.9873 9.62047 11.0047L8.99685 11.3765C8.96625 11.3941 8.94076 11.4195 8.92289 11.4499C8.90502 11.4804 8.89538 11.515 8.89491 11.5504L8.87693 12.4018Z" fill="#FBCB00"/>
<path d="M8.66571 15.1C8.55681 15.1011 8.44944 15.0743 8.3539 15.022L7.7123 14.6503C7.61697 14.5967 7.53809 14.5182 7.48419 14.423C7.43029 14.3279 7.40342 14.2199 7.40649 14.1106V13.367C7.40452 13.2588 7.43191 13.152 7.48575 13.058C7.5396 12.964 7.61788 12.8864 7.7123 12.8334L8.56377 12.3417C8.59587 12.3238 8.63198 12.3145 8.66871 12.3145C8.70543 12.3145 8.74155 12.3238 8.77364 12.3417L9.823 12.9413C9.85527 12.9606 9.8821 12.9878 9.90098 13.0203C9.91986 13.0528 9.93017 13.0896 9.93093 13.1272V14.3265C9.93137 14.3643 9.92157 14.4015 9.90257 14.4343C9.88357 14.467 9.85608 14.494 9.823 14.5123L8.99551 15.04C8.89292 15.0892 8.77903 15.1099 8.66571 15.1ZM8.66571 12.7674L7.92817 13.1991C7.89762 13.2154 7.87203 13.2395 7.85408 13.2691C7.83614 13.2986 7.82652 13.3325 7.82623 13.367V14.1106C7.82512 14.1454 7.83416 14.1799 7.85226 14.2097C7.87036 14.2395 7.89673 14.2634 7.92817 14.2785L8.56977 14.6503C8.59964 14.6682 8.63385 14.6777 8.66871 14.6777C8.70357 14.6777 8.73778 14.6682 8.76765 14.6503L9.50519 14.2245V13.2411L8.66571 12.7674Z" fill="#FBCB00"/>
<path d="M10.7955 15.0996C10.6866 15.1007 10.5792 15.0739 10.4837 15.0216L9.59623 14.5299C9.56315 14.5115 9.53566 14.4846 9.51666 14.4518C9.49766 14.4191 9.48786 14.3819 9.4883 14.344V13.1448C9.48906 13.1072 9.49937 13.0704 9.51825 13.0379C9.53713 13.0054 9.56396 12.9782 9.59623 12.9589L10.6456 12.3593C10.6777 12.3414 10.7138 12.332 10.7505 12.332C10.7872 12.332 10.8234 12.3414 10.8555 12.3593L11.7069 12.851C11.8013 12.904 11.8796 12.9816 11.9335 13.0756C11.9873 13.1696 12.0147 13.2763 12.0127 13.3846V14.1282C12.0158 14.2375 11.9889 14.3455 11.935 14.4406C11.8811 14.5357 11.8023 14.6143 11.7069 14.6678L11.0773 15.0396C10.9896 15.0822 10.8929 15.1028 10.7955 15.0996ZM9.95601 14.2241L10.6936 14.6498C10.7234 14.6678 10.7576 14.6773 10.7925 14.6773C10.8274 14.6773 10.8616 14.6678 10.8914 14.6498L11.533 14.2781C11.5645 14.263 11.5908 14.2391 11.6089 14.2093C11.627 14.1795 11.6361 14.145 11.635 14.1102V13.3666C11.6347 13.3321 11.6251 13.2982 11.6071 13.2687C11.5892 13.2391 11.5636 13.2149 11.533 13.1987L10.7955 12.767L9.95601 13.2527V14.2241Z" fill="#FBCB00"/>
<path d="M3.1279 9.13341C2.93437 9.13026 2.74984 9.05117 2.61411 8.91319C2.47838 8.77522 2.40232 8.58941 2.40234 8.39586V5.21782C2.40234 5.18947 2.40793 5.1614 2.41878 5.13521C2.42962 5.10902 2.44552 5.08522 2.46557 5.06518C2.48561 5.04513 2.50941 5.02923 2.5356 5.01839C2.56179 5.00754 2.58986 5.00195 2.61821 5.00195H5.74828C5.80449 5.00351 5.85787 5.02695 5.89706 5.06726C5.93626 5.10758 5.95818 5.16159 5.95816 5.21782V7.75426C5.95816 7.94987 5.88045 8.13747 5.74213 8.27578C5.60382 8.4141 5.41622 8.49181 5.22061 8.49181C5.025 8.49181 4.8374 8.4141 4.69909 8.27578C4.56077 8.13747 4.48306 7.94987 4.48306 7.75426C4.46445 7.6891 4.42512 7.63178 4.37102 7.59098C4.31693 7.55017 4.25101 7.5281 4.18325 7.5281C4.11549 7.5281 4.04957 7.55017 3.99547 7.59098C3.94138 7.63178 3.90204 7.6891 3.88343 7.75426V8.40186C3.88267 8.49974 3.86242 8.59649 3.82388 8.68647C3.78534 8.77645 3.72928 8.85786 3.65895 8.92595C3.58863 8.99404 3.50546 9.04745 3.41428 9.08307C3.32311 9.11869 3.22575 9.1358 3.1279 9.13341ZM2.81609 5.44568V8.44384C2.81529 8.48528 2.82277 8.52648 2.83808 8.565C2.85339 8.60353 2.87623 8.63861 2.90527 8.6682C2.9343 8.6978 2.96895 8.7213 3.00717 8.73734C3.0454 8.75339 3.08644 8.76165 3.1279 8.76164C3.21218 8.76164 3.29302 8.72816 3.35262 8.66856C3.41222 8.60896 3.4457 8.52812 3.4457 8.44384V7.74826C3.4457 7.55424 3.52278 7.36817 3.65997 7.23098C3.79716 7.09379 3.98323 7.01671 4.17725 7.01671C4.37127 7.01671 4.55734 7.09379 4.69454 7.23098C4.83173 7.36817 4.9088 7.55424 4.9088 7.74826C4.89555 7.79467 4.89324 7.84352 4.90207 7.89096C4.9109 7.93841 4.93063 7.98316 4.95969 8.02168C4.98875 8.06021 5.02636 8.09147 5.06956 8.11299C5.11275 8.13451 5.16036 8.14572 5.20862 8.14572C5.25688 8.14572 5.30448 8.13451 5.34767 8.11299C5.39087 8.09147 5.42848 8.06021 5.45754 8.02168C5.48661 7.98316 5.50633 7.93841 5.51516 7.89096C5.52399 7.84352 5.52169 7.79467 5.50843 7.74826V5.44568H2.81609Z" fill="#FBCB00"/>
</g>
<defs>
<clipPath id="clip0_356_4550">
<rect width="13" height="14.4511" fill="white" transform="translate(0 0.648438)"/>
</clipPath>
</defs>
</svg>
