<svg width="12" height="15" viewBox="0 0 12 15" fill="none" xmlns="http://www.w3.org/2000/svg">
<g clip-path="url(#clip0_356_19508)">
<path d="M2.125 4.52663C2.8295 4.62169 3.54661 4.53547 4.2085 4.27612C4.40478 4.1954 4.61691 4.1606 4.8287 4.17436C5.04048 4.18813 5.24632 4.2501 5.4305 4.35555C5.4305 4.35555 6.0415 4.35555 5.23498 4.09282C5.23498 4.09282 6.42032 3.13356 8.45494 4.62439C8.45494 4.62439 8.71767 4.55107 8.63824 4.09893C8.55881 3.64679 10.6179 5.10708 10.0496 8.10708L9.04761 7.09893C9.11276 6.48662 9.07976 5.86784 8.94985 5.26594C8.96859 5.78798 8.90466 6.30969 8.76044 6.81176L7.77673 6.20077C7.74333 5.83704 7.63155 5.48485 7.44909 5.16844C7.26662 4.85202 7.01779 4.57887 6.7197 4.36777C6.97766 4.86109 7.14331 5.39739 7.2085 5.95026C6.20947 5.57288 5.15865 5.35036 4.09241 5.29038C4.09241 5.29038 6.38977 6.17633 6.46309 6.24964C5.78014 6.4046 5.0784 6.46016 4.37958 6.41461C5.21415 6.56334 6.06844 6.56334 6.903 6.41461C7.6661 6.64831 8.35902 7.06827 8.9193 7.63661C8.13427 7.94444 7.31284 8.1498 6.47531 8.24761C6.47531 8.24761 7.3307 8.53478 9.21869 7.86879C9.58744 8.19746 9.901 8.58323 10.1474 9.01136C9.05646 8.77373 7.92408 8.80518 6.84801 9.10301C6.84801 9.10301 5.01502 9.10301 4.48345 7.88101C4.68292 7.81887 4.88733 7.77391 5.09445 7.74659C5.09445 7.74659 3.05372 7.41665 2.125 4.52663Z" fill="#7EAF2A"/>
<path d="M1.55078 7.85669C2.1461 7.54589 2.77844 7.31185 3.43266 7.16016L4.11086 7.67339C4.11086 7.67339 3.95811 8.25384 5.38785 9.04814C6.07555 9.31124 6.82495 9.36856 7.54467 9.21311H8.32064C7.61262 10.0671 6.60046 10.6126 5.49783 10.7345L5.785 10.3679C5.785 10.3679 3.78092 10.7956 3.19437 9.59804L3.62817 9.53083C3.22963 9.40227 2.87858 9.1576 2.62003 8.82818C2.32747 8.44036 1.96479 8.11084 1.55078 7.85669Z" fill="#7EAF2A"/>
<path d="M2.19909 11.609C1.82741 11.9585 1.43129 12.2811 1.01376 12.5743C0.891556 12.4827 0.830456 12.4338 0.708256 12.3299C0.793796 12.1161 0.842676 12.0061 0.940436 11.7923C1.00639 11.6452 1.08835 11.5059 1.18483 11.3768C1.06739 11.488 0.938339 11.5864 0.799906 11.6701C0.604387 11.7984 0.500517 11.8595 0.298888 11.9756C0.182798 11.8656 0.121698 11.8045 0.0117188 11.6884C0.244516 11.2352 0.507852 10.7983 0.799906 10.3809L1.01376 10.6191C0.842676 10.8697 0.757136 10.998 0.598277 11.2301C0.537177 11.3218 0.433307 11.4868 0.372208 11.5723L0.714366 11.3401C0.964876 11.1813 1.08708 11.1018 1.32536 10.9308L1.56365 11.1446C1.42923 11.4012 1.36202 11.5356 1.23371 11.8045C1.18483 11.9084 1.10541 12.0794 1.05653 12.1711C1.13596 12.0978 1.28259 11.9756 1.36813 11.9084C1.60031 11.7128 1.7164 11.609 1.93636 11.4073L2.19909 11.609Z" fill="#7EAF2A"/>
<path d="M2.59679 11.8344L1.88192 13.1175L1.57031 12.9342L2.34017 11.6816C2.42297 11.737 2.50863 11.788 2.59679 11.8344Z" fill="#7EAF2A"/>
<path d="M3.7829 12.3551L3.32466 13.7482L2.98861 13.6321C3.07415 13.3999 3.12303 13.2838 3.20857 13.0517C3.03749 12.9906 2.95806 12.9539 2.79309 12.8806C2.68922 13.1067 2.64034 13.2166 2.54258 13.4427L2.21875 13.2961L2.87252 11.9824L3.13525 12.1046L2.89085 12.6545C3.04971 12.7278 3.12914 12.7584 3.29411 12.8195C3.37965 12.5934 3.42242 12.4834 3.50185 12.2574L3.7829 12.3551Z" fill="#7EAF2A"/>
<path d="M4.88725 12.8315L4.5512 12.7765C4.45955 13.2592 4.41067 13.4975 4.31902 13.9985L3.97075 13.9252C4.08684 13.4486 4.14183 13.2103 4.25792 12.7398C4.1235 12.7032 4.05629 12.691 3.92188 12.6482L3.99519 12.416C4.28714 12.5038 4.58536 12.5692 4.88725 12.6115C4.88725 12.7093 4.88725 12.7521 4.88725 12.8315Z" fill="#7EAF2A"/>
<path d="M5.39895 13.7168H5.74111C5.74111 13.8451 5.83276 13.9062 5.9794 13.9062C6.12604 13.9062 6.20546 13.8268 6.19935 13.7351C6.19935 13.4724 5.44783 13.448 5.47227 13.008C5.47227 12.7881 5.66168 12.6414 5.94885 12.6353C6.00866 12.6249 6.06999 12.6272 6.12888 12.642C6.18777 12.6568 6.24289 12.6837 6.29069 12.7212C6.33849 12.7586 6.3779 12.8057 6.40637 12.8593C6.43484 12.9129 6.45174 12.9719 6.45597 13.0325H6.14437C6.14554 13.0081 6.14129 12.9837 6.13192 12.9612C6.12255 12.9386 6.10828 12.9185 6.09016 12.9021C6.07204 12.8857 6.05052 12.8736 6.02713 12.8665C6.00375 12.8595 5.9791 12.8578 5.95496 12.8614C5.84498 12.8614 5.77777 12.9225 5.77777 13.0019C5.77777 13.2585 6.49874 13.2341 6.54151 13.6924C6.54151 13.9245 6.36432 14.1323 5.9794 14.1384C5.59447 14.1445 5.38673 13.9979 5.39895 13.7168Z" fill="#7EAF2A"/>
<path d="M7.53789 12.7087L7.20795 12.7821L7.45235 14.0041C7.33532 14.0303 7.21705 14.0507 7.09797 14.0652C7.01854 13.5886 6.98189 13.3442 6.90857 12.8432C6.79534 12.8634 6.68113 12.8777 6.56641 12.8859V12.6415C6.88229 12.6144 7.19513 12.5592 7.50123 12.4766L7.53789 12.7087Z" fill="#7EAF2A"/>
<path d="M8.93153 13.2644C8.96819 13.356 8.98652 13.3988 9.02929 13.4904C8.71056 13.631 8.38174 13.7474 8.04559 13.8387L7.64844 12.4273C7.91492 12.353 8.17618 12.2612 8.43051 12.1523L8.52216 12.3723C8.31442 12.464 8.21056 12.5006 8.00282 12.5739C8.04559 12.7084 8.07003 12.7756 8.1128 12.9161C8.28509 12.862 8.45438 12.7988 8.61992 12.7267L8.71157 12.9466C8.53981 13.0188 8.36442 13.082 8.18612 13.1361L8.30832 13.5027C8.52036 13.435 8.72842 13.3554 8.93153 13.2644Z" fill="#7EAF2A"/>
<path d="M8.55469 12.1041L8.82964 11.9758C9.02516 12.208 9.12903 12.324 9.33676 12.5501L9.59949 12.8617L9.47729 12.4707C9.39786 12.1713 9.35509 12.0247 9.26345 11.7314C9.35256 11.6822 9.43829 11.6271 9.52006 11.5664C9.6867 12.0515 9.8194 12.5476 9.91721 13.0511C9.78279 13.1306 9.71558 13.1672 9.58116 13.2344C9.21223 12.8829 8.86918 12.5051 8.55469 12.1041Z" fill="#7EAF2A"/>
<path d="M9.90235 11.2852L10.8005 12.4461L10.5072 12.666L9.66406 11.444L9.90235 11.2852Z" fill="#7EAF2A"/>
<path d="M11.4858 11.4745C11.3453 11.615 11.2781 11.6822 11.1375 11.8105C11.1864 11.9144 11.2109 11.9633 11.2536 12.0672C11.1437 12.171 11.0826 12.2199 10.9665 12.3177C10.7955 11.8317 10.5913 11.3581 10.3555 10.9001C10.4374 10.8274 10.5149 10.7499 10.5876 10.668C11.042 10.9071 11.5138 11.1113 11.9991 11.279L11.7363 11.5722L11.4858 11.4745ZM11.2536 11.3584L11.0092 11.2179C10.9029 11.1578 10.8008 11.0904 10.7037 11.0162C10.7587 11.0957 10.8504 11.2362 10.8993 11.3278L11.0337 11.5784L11.2536 11.3584Z" fill="#7EAF2A"/>
<path d="M0.817343 3.40271C0.902883 3.29885 0.951763 3.24386 1.04341 3.1461C1.14117 3.23775 1.24504 3.21331 1.3428 3.11555C1.44056 3.01779 1.44667 2.92003 1.38557 2.84671C1.20227 2.65119 0.646264 3.20109 0.310215 2.91392C0.145245 2.77339 0.169685 2.48011 0.444634 2.21127C0.719584 1.94243 1.00675 1.91799 1.17172 2.11962L0.902883 2.35791C0.817343 2.27848 0.719583 2.2907 0.621824 2.38846C0.524064 2.48622 0.505734 2.58398 0.566834 2.64508C0.750133 2.81616 1.3428 2.27237 1.63608 2.64508C1.78883 2.82227 1.75217 3.07889 1.51388 3.31717C1.47438 3.36936 1.4248 3.41309 1.36809 3.44575C1.31137 3.47842 1.24867 3.49936 1.18371 3.50734C1.11875 3.51531 1.05285 3.51016 0.989914 3.49219C0.92698 3.47422 0.868296 3.44379 0.817343 3.40271Z" fill="#7EAF2A"/>
<path d="M1.75162 2.44421L1.14062 1.64991L1.44612 1.42384C1.68441 1.75378 1.79439 1.91264 2.02657 2.24258C2.04082 2.27014 2.06088 2.29427 2.08539 2.3133C2.10989 2.33233 2.13824 2.34579 2.16846 2.35277C2.19869 2.35975 2.23007 2.36006 2.26044 2.35369C2.2908 2.34733 2.31941 2.33443 2.34429 2.3159C2.37232 2.30123 2.39675 2.28053 2.41581 2.25528C2.43487 2.23003 2.44809 2.20087 2.45452 2.16989C2.46095 2.13891 2.46042 2.1069 2.45298 2.07615C2.44555 2.0454 2.43138 2.01668 2.4115 1.99207L1.88604 1.13668L2.20987 0.947266L2.68034 1.83321C2.71514 1.89195 2.7374 1.95724 2.74575 2.025C2.75409 2.09275 2.74832 2.1615 2.72881 2.22692C2.7093 2.29233 2.67647 2.35301 2.63237 2.40513C2.58828 2.45724 2.53388 2.49967 2.4726 2.52975C2.42033 2.57309 2.3598 2.60536 2.29467 2.62459C2.22955 2.64382 2.1612 2.64961 2.09377 2.64161C2.02634 2.63361 1.96124 2.61198 1.90242 2.57805C1.8436 2.54412 1.7923 2.49858 1.75162 2.44421Z" fill="#7EAF2A"/>
<path d="M2.91929 1.72252L2.65657 1.2215C2.52215 0.946555 2.65657 0.689936 3.01705 0.549406C3.37754 0.408876 3.62805 0.500526 3.73192 0.781585C3.60361 0.824355 3.5364 0.842685 3.4142 0.891565C3.3531 0.751035 3.26145 0.720485 3.11481 0.775475C2.96817 0.830465 2.91318 0.934335 2.97428 1.07486L3.20646 1.60643C3.21451 1.63525 3.22907 1.66184 3.24901 1.68415C3.26896 1.70646 3.29375 1.72389 3.3215 1.7351C3.34924 1.74632 3.37918 1.75102 3.40903 1.74883C3.43887 1.74665 3.46782 1.73765 3.49363 1.72252C3.52828 1.72162 3.56211 1.71181 3.59186 1.69403C3.62161 1.67624 3.64627 1.65109 3.66347 1.621C3.68066 1.5909 3.68981 1.55689 3.69003 1.52223C3.69025 1.48757 3.68153 1.45344 3.66471 1.42313L3.61583 1.28871L3.37754 1.38036L3.29811 1.16651C3.47392 1.09231 3.65338 1.02705 3.83579 0.970995C3.87856 1.11763 3.903 1.18484 3.94577 1.32537C3.96724 1.38707 3.97563 1.45255 3.97041 1.51766C3.96518 1.58278 3.94645 1.64609 3.91541 1.70356C3.88438 1.76104 3.84171 1.81142 3.79013 1.85151C3.73855 1.89159 3.67919 1.92049 3.61583 1.93637C3.5578 1.97504 3.4919 2.00033 3.4229 2.0104C3.3539 2.02048 3.28352 2.01509 3.21685 1.99462C3.15019 1.97415 3.08891 1.93912 3.03745 1.89206C2.98598 1.84501 2.94563 1.78709 2.91929 1.72252Z" fill="#7EAF2A"/>
<path d="M4.8336 1.2886C4.67474 1.2886 4.59531 1.33137 4.44256 1.36803C4.44256 1.47801 4.44256 1.533 4.44256 1.63687L4.1554 1.7163C4.13623 1.20429 4.15666 0.69156 4.2165 0.182695L4.5892 0.109375C4.83961 0.556893 5.0561 1.02256 5.23686 1.50245L4.94358 1.53911L4.8336 1.2886ZM4.72973 1.05642L4.60753 0.799803C4.56476 0.708153 4.50366 0.555404 4.467 0.463754C4.467 0.561513 4.467 0.726483 4.467 0.830353C4.467 0.934222 4.467 1.00143 4.467 1.11141L4.72973 1.05642Z" fill="#7EAF2A"/>
<path d="M5.8028 0.953157H5.66227C5.66227 1.15479 5.66227 1.25866 5.66227 1.4664H5.38121C5.34455 0.904277 5.32622 0.610998 5.27734 0C5.4973 0 5.60728 0 5.82724 0C6.21828 0 6.43824 0.189409 6.43824 0.488798C6.43698 0.581988 6.40695 0.672511 6.35226 0.747978C6.29758 0.823445 6.2209 0.880169 6.13274 0.910387C6.26716 1.13646 6.32826 1.25255 6.44435 1.48473L6.1083 1.4664C5.99221 1.25866 5.93111 1.1609 5.8028 0.953157ZM5.65616 0.714868H5.83335C5.86803 0.724083 5.90443 0.724677 5.93939 0.716596C5.97434 0.708516 6.00679 0.692007 6.03391 0.668509C6.06102 0.645011 6.08197 0.615237 6.09494 0.581783C6.10791 0.548329 6.11249 0.512211 6.1083 0.476578C6.1083 0.323829 5.99221 0.244399 5.82724 0.244399H5.63783C5.64394 0.433809 5.65005 0.525458 5.65616 0.714868Z" fill="#7EAF2A"/>
<path d="M7.63634 0.440265C7.60579 0.586904 7.58746 0.654114 7.5508 0.800753C7.722 0.836967 7.89126 0.881831 8.05793 0.935173L7.98461 1.16124C7.78909 1.10014 7.69133 1.0757 7.49581 1.02682C7.44082 1.27122 7.41027 1.39342 7.35528 1.63782L7.07422 1.57672L7.33084 0.134766C7.65065 0.187474 7.96542 0.267189 8.27177 0.373055L8.21678 0.611344C7.98461 0.525804 7.86852 0.495254 7.63634 0.440265Z" fill="#7EAF2A"/>
<path d="M8.63784 1.52042L8.50342 1.46543C8.4301 1.65484 8.38733 1.74649 8.3079 1.9359L8.03906 1.83203C8.24069 1.28213 8.33845 1.00107 8.53397 0.451172C8.74782 0.530602 8.85169 0.567262 9.05332 0.658911C9.41992 0.823881 9.54212 1.09272 9.39548 1.35545C9.35511 1.44007 9.28911 1.50981 9.20685 1.55478C9.12459 1.59975 9.03025 1.61766 8.93723 1.60596C8.96543 1.82487 8.98175 2.04516 8.98611 2.26584L8.69894 2.11309C8.69038 1.91449 8.66998 1.71658 8.63784 1.52042ZM8.60118 1.22103L8.76615 1.28824C8.79064 1.307 8.8189 1.32024 8.84899 1.32706C8.87908 1.33387 8.91028 1.33409 8.94047 1.32771C8.97065 1.32132 8.99909 1.30848 9.02385 1.29007C9.0486 1.27165 9.06908 1.2481 9.08387 1.22103C9.10122 1.19307 9.11168 1.16138 9.11439 1.12859C9.1171 1.09579 9.11198 1.06282 9.09945 1.03239C9.08692 1.00196 9.06734 0.974947 9.04232 0.953567C9.01731 0.932187 8.98757 0.917056 8.95556 0.90942L8.77837 0.829991C8.70505 0.97663 8.66839 1.06828 8.60118 1.22103Z" fill="#7EAF2A"/>
<path d="M10.0133 2.66987L9.8606 2.85928C9.64265 2.67333 9.40968 2.50575 9.16406 2.35827C9.46956 1.85725 9.6162 1.60063 9.91559 1.09961C10.2191 1.27913 10.5073 1.4835 10.7771 1.71061L10.6243 1.90002C10.4166 1.73505 10.3127 1.65562 10.0928 1.50898L9.89115 1.80837C10.0543 1.91342 10.2114 2.02766 10.3616 2.15053L10.215 2.33383C10.0378 2.1933 9.94614 2.1322 9.76284 2.00389L9.54899 2.32772C9.71068 2.43209 9.86576 2.54636 10.0133 2.66987Z" fill="#7EAF2A"/>
<path d="M10.8824 3.51292L10.693 3.66567C10.5079 3.43306 10.3035 3.21641 10.082 3.01802C10.4731 2.5781 10.6625 2.35203 11.0474 1.91211C11.3231 2.14912 11.5785 2.40867 11.8112 2.68808L11.6279 2.84694C11.4805 2.67129 11.3234 2.50402 11.1574 2.34592L10.9069 2.60254C11.078 2.77362 11.1574 2.85916 11.3162 3.04246L11.1452 3.19521C10.9863 3.01802 10.9069 2.93248 10.7419 2.77362L10.4547 3.05468C10.6051 3.20001 10.7478 3.35296 10.8824 3.51292Z" fill="#7EAF2A"/>
</g>
<defs>
<clipPath id="clip0_356_19508">
<rect width="12" height="14.169" fill="white"/>
</clipPath>
</defs>
</svg>
