<svg width="211" height="149" viewBox="0 0 211 149" fill="none" xmlns="http://www.w3.org/2000/svg">
<path d="M0.0121976 128.642H2.75666L2.74446 108.504L11.8195 121.805H11.9597L21.0225 108.461L21.0347 128.63H23.8463L23.8341 103.729L20.986 103.735L11.9231 117.323L2.84204 103.741H0L0.0121976 128.642Z" fill="white"/>
<path d="M38.2881 103.722H35.4766V128.624H38.2881V103.722Z" fill="white"/>
<path d="M61.3163 129.032C65.8355 129.032 68.6775 127.428 71.2756 124.794L69.446 122.842C67.0674 125.123 64.8231 126.434 61.4078 126.44C55.9188 126.44 51.7656 121.927 51.7656 116.164C51.7656 110.4 55.8883 105.881 61.4017 105.875C64.7743 105.875 67.1284 107.302 69.2264 109.291L71.056 107.296C68.5677 104.948 65.9331 103.283 61.4138 103.283C54.0953 103.283 48.8259 109.126 48.832 116.164C48.832 123.385 54.138 129.038 61.3224 129.032" fill="white"/>
<path d="M80.5356 128.599H83.3472L83.3411 117.39L97.7098 117.384L97.7159 128.587H100.521L100.509 103.692H97.6976L97.7037 114.755L83.335 114.761L83.3289 103.698H80.5234L80.5356 128.599Z" fill="white"/>
<path d="M111.915 128.581L130.089 128.575V126.013L114.726 126.019L114.72 117.304L128.308 117.298L128.302 114.737L114.72 114.743L114.714 106.241L129.9 106.235V103.673L111.902 103.686L111.915 128.581Z" fill="white"/>
<path d="M140.09 128.569L156.917 128.557V125.959L142.902 125.971L142.89 103.667H140.078L140.09 128.569Z" fill="white"/>
<path d="M166.46 128.551L183.28 128.544V125.946L169.265 125.959L169.253 103.655H166.441L166.46 128.551Z" fill="white"/>
<path d="M192.827 128.538L211.001 128.532V125.965L195.632 125.977L195.626 117.262L209.214 117.256V114.694L195.626 114.7L195.62 106.198L210.812 106.192V103.631L192.809 103.643L192.827 128.538Z" fill="white"/>
<path d="M174.668 146.676H175.54V138.443H174.668V146.676ZM169.978 146.103C169.191 146.103 168.52 145.676 168.514 144.95C168.508 144.225 169.124 143.731 170.216 143.731C170.79 143.731 171.361 143.813 171.911 143.974V144.542C171.911 145.463 171.051 146.103 169.978 146.103ZM169.813 146.804C170.216 146.815 170.615 146.73 170.978 146.557C171.341 146.384 171.659 146.129 171.905 145.81V146.676H172.759V143.121C172.777 142.81 172.733 142.498 172.628 142.205C172.523 141.911 172.36 141.642 172.149 141.413C171.893 141.188 171.596 141.016 171.274 140.906C170.951 140.796 170.611 140.751 170.271 140.773C169.537 140.775 168.813 140.944 168.154 141.267L168.417 141.98C168.965 141.71 169.568 141.566 170.179 141.559C171.271 141.559 171.899 142.102 171.899 143.133V143.316C171.324 143.144 170.725 143.062 170.124 143.072C168.648 143.072 167.636 143.718 167.636 144.969C167.636 146.219 168.722 146.798 169.813 146.798M165.196 146.676H166.069V140.882H165.203L165.196 146.676ZM165.142 139.589H166.13V138.632H165.142V139.589ZM161.318 146.81C161.773 146.816 162.224 146.718 162.635 146.522C163.046 146.327 163.407 146.039 163.69 145.682L163.117 145.158C162.905 145.421 162.639 145.635 162.337 145.787C162.035 145.938 161.704 146.023 161.366 146.036C160.785 146.015 160.234 145.771 159.827 145.354C159.42 144.938 159.189 144.381 159.181 143.799C159.173 143.217 159.389 142.654 159.785 142.227C160.18 141.8 160.725 141.541 161.305 141.504C161.647 141.508 161.984 141.587 162.293 141.734C162.602 141.882 162.874 142.095 163.092 142.358L163.647 141.748C163.315 141.361 162.89 141.064 162.412 140.884C161.935 140.704 161.42 140.646 160.914 140.716C160.409 140.787 159.929 140.983 159.519 141.287C159.109 141.591 158.782 141.993 158.568 142.457C158.353 142.92 158.259 143.43 158.293 143.939C158.327 144.448 158.488 144.941 158.761 145.372C159.035 145.803 159.412 146.158 159.859 146.405C160.306 146.652 160.807 146.783 161.318 146.786M152.554 143.407C152.565 142.903 152.766 142.422 153.116 142.059C153.467 141.696 153.941 141.479 154.444 141.45C155.591 141.45 156.201 142.346 156.304 143.407H152.554ZM152.554 144.103H157.158C157.163 144.001 157.163 143.899 157.158 143.798C157.158 142.09 156.17 140.718 154.45 140.718C153.642 140.732 152.872 141.068 152.31 141.65C151.749 142.232 151.441 143.013 151.456 143.822C151.47 144.631 151.806 145.401 152.388 145.962C152.97 146.524 153.751 146.831 154.56 146.817C155.016 146.829 155.469 146.737 155.885 146.548C156.3 146.359 156.667 146.077 156.957 145.725L156.42 145.237C156.193 145.498 155.911 145.707 155.596 145.849C155.28 145.991 154.937 146.063 154.591 146.06C154.066 146.066 153.56 145.867 153.179 145.506C152.798 145.146 152.571 144.651 152.548 144.127M147.498 146.03C146.92 146 146.377 145.749 145.979 145.33C145.58 144.911 145.359 144.354 145.359 143.776C145.359 143.198 145.58 142.642 145.979 142.223C146.377 141.803 146.92 141.553 147.498 141.523C147.782 141.529 148.063 141.592 148.322 141.71C148.582 141.828 148.814 141.997 149.006 142.208C149.198 142.418 149.344 142.666 149.437 142.935C149.53 143.204 149.568 143.489 149.547 143.773C149.575 144.059 149.543 144.347 149.453 144.619C149.363 144.891 149.218 145.141 149.025 145.354C148.833 145.566 148.598 145.736 148.336 145.853C148.074 145.969 147.791 146.029 147.504 146.03M144.564 148.469H145.43V145.578C145.669 145.954 145.999 146.263 146.389 146.476C146.779 146.69 147.218 146.8 147.662 146.798C148.409 146.716 149.099 146.361 149.6 145.802C150.101 145.243 150.378 144.518 150.378 143.767C150.378 143.016 150.101 142.292 149.6 141.732C149.099 141.173 148.409 140.818 147.662 140.736C147.211 140.741 146.769 140.863 146.379 141.09C145.989 141.316 145.665 141.64 145.436 142.029V140.882H144.57L144.564 148.469ZM140.905 146.78C142.064 146.78 142.972 146.14 142.972 145.042C142.972 143.944 142.009 143.621 141.106 143.352C140.332 143.115 139.612 142.901 139.612 142.352C139.612 141.803 140.051 141.486 140.734 141.486C141.349 141.509 141.945 141.703 142.454 142.047L142.851 141.395C142.222 140.999 141.495 140.787 140.753 140.785C139.606 140.785 138.777 141.45 138.777 142.45C138.777 143.45 139.789 143.853 140.704 144.115C141.466 144.328 142.155 144.554 142.155 145.133C142.155 145.713 141.649 146.079 140.935 146.079C140.2 146.058 139.492 145.799 138.917 145.341L138.484 145.95C139.169 146.492 140.014 146.792 140.887 146.804M130.683 145.487C130.42 145.493 130.158 145.446 129.914 145.348C129.669 145.251 129.446 145.106 129.258 144.921C129.071 144.736 128.922 144.516 128.821 144.272C128.72 144.029 128.669 143.768 128.671 143.505C128.664 143.24 128.711 142.977 128.811 142.732C128.91 142.487 129.058 142.264 129.247 142.079C129.436 141.894 129.661 141.749 129.908 141.654C130.155 141.56 130.419 141.517 130.683 141.529C130.954 141.514 131.224 141.553 131.479 141.645C131.734 141.736 131.968 141.877 132.167 142.06C132.367 142.243 132.527 142.464 132.64 142.71C132.753 142.956 132.816 143.222 132.824 143.493C132.815 143.764 132.753 144.032 132.641 144.28C132.528 144.527 132.368 144.75 132.169 144.935C131.97 145.121 131.736 145.265 131.481 145.36C131.226 145.454 130.955 145.498 130.683 145.487ZM130.683 148.536C131.086 148.561 131.49 148.505 131.871 148.372C132.252 148.239 132.603 148.031 132.903 147.762C133.158 147.485 133.355 147.16 133.481 146.806C133.608 146.452 133.662 146.076 133.641 145.7V140.882H132.775V141.931C132.506 141.543 132.14 141.23 131.715 141.024C131.289 140.817 130.817 140.724 130.345 140.753C129.873 140.783 129.416 140.933 129.019 141.19C128.622 141.448 128.298 141.803 128.079 142.222C127.859 142.641 127.751 143.11 127.766 143.583C127.78 144.055 127.916 144.517 128.161 144.921C128.406 145.326 128.751 145.661 129.163 145.894C129.575 146.126 130.04 146.249 130.513 146.249C130.964 146.249 131.408 146.137 131.805 145.924C132.203 145.712 132.543 145.404 132.794 145.03V145.713C132.82 145.995 132.783 146.28 132.685 146.547C132.587 146.813 132.432 147.054 132.229 147.253C132.026 147.452 131.782 147.603 131.513 147.695C131.245 147.787 130.959 147.818 130.677 147.786C129.87 147.789 129.084 147.528 128.439 147.042L128.073 147.713C128.848 148.25 129.771 148.531 130.714 148.518M121.212 146.688H122.078V143.365C122.061 143.128 122.094 142.89 122.174 142.666C122.254 142.443 122.38 142.238 122.543 142.066C122.707 141.894 122.905 141.758 123.124 141.666C123.343 141.575 123.579 141.53 123.816 141.535C124.841 141.535 125.426 142.206 125.426 143.285V146.682H126.298V143.072C126.328 142.768 126.291 142.461 126.191 142.172C126.091 141.884 125.93 141.62 125.718 141.399C125.507 141.179 125.251 141.006 124.967 140.894C124.682 140.782 124.377 140.732 124.072 140.748C123.669 140.736 123.269 140.836 122.919 141.036C122.568 141.236 122.279 141.529 122.084 141.883V140.882H121.218L121.212 146.688ZM118.333 146.688H119.199V140.882H118.315L118.333 146.688ZM118.272 139.602H119.26V138.644H118.272V139.602ZM111.326 146.688H112.192V143.383C112.176 143.146 112.209 142.908 112.29 142.684C112.371 142.461 112.497 142.256 112.661 142.084C112.825 141.912 113.023 141.776 113.243 141.685C113.462 141.593 113.698 141.548 113.936 141.553C114.961 141.553 115.546 142.224 115.546 143.304V146.701H116.418V143.09C116.449 142.786 116.413 142.479 116.313 142.189C116.214 141.9 116.052 141.636 115.841 141.415C115.629 141.195 115.372 141.022 115.088 140.91C114.803 140.798 114.498 140.749 114.192 140.767C113.788 140.755 113.388 140.855 113.037 141.055C112.685 141.255 112.395 141.548 112.198 141.901V138.492H111.332L111.326 146.688ZM108.728 146.792C109.091 146.801 109.451 146.715 109.771 146.542V145.822C109.511 145.957 109.222 146.026 108.929 146.024C108.797 146.044 108.662 146.033 108.535 145.992C108.408 145.951 108.292 145.881 108.197 145.787C108.102 145.694 108.03 145.579 107.986 145.453C107.943 145.327 107.929 145.192 107.947 145.06V141.663H109.777V140.882H107.947V139.132H107.081V140.882H106.27V141.651H107.081V145.152C107.056 145.374 107.081 145.599 107.155 145.81C107.228 146.021 107.349 146.212 107.507 146.37C107.666 146.528 107.858 146.648 108.069 146.721C108.281 146.794 108.506 146.818 108.728 146.792ZM100.629 143.462C100.64 142.959 100.84 142.478 101.189 142.116C101.538 141.753 102.011 141.535 102.513 141.504C103.66 141.504 104.27 142.401 104.343 143.462H100.629ZM100.629 144.164H105.239C105.244 144.062 105.244 143.96 105.239 143.859C105.239 142.151 104.245 140.779 102.525 140.809C101.773 140.898 101.082 141.263 100.584 141.833C100.086 142.404 99.8189 143.139 99.8333 143.896C99.8478 144.653 100.143 145.377 100.662 145.928C101.181 146.479 101.887 146.818 102.641 146.878C103.097 146.889 103.55 146.797 103.965 146.607C104.38 146.418 104.747 146.137 105.038 145.786L104.495 145.304C104.266 145.563 103.984 145.771 103.669 145.912C103.353 146.054 103.011 146.128 102.666 146.127C102.14 146.133 101.633 145.934 101.251 145.574C100.869 145.213 100.642 144.719 100.616 144.194M89.4007 146.749H90.2606V143.432C90.2406 143.204 90.2671 142.975 90.3385 142.758C90.4099 142.541 90.5246 142.341 90.6758 142.17C90.827 141.999 91.0115 141.86 91.2179 141.762C91.4244 141.665 91.6486 141.61 91.8768 141.602C92.8038 141.602 93.3771 142.212 93.3771 143.328V146.749H94.2309V143.395C94.2061 143.169 94.2291 142.941 94.2983 142.724C94.3675 142.508 94.4814 142.308 94.6326 142.139C94.7838 141.969 94.969 141.833 95.1761 141.74C95.3832 141.646 95.6077 141.597 95.8349 141.596C96.7802 141.596 97.3413 142.206 97.3474 143.352V146.749H98.2134V143.151C98.2134 141.712 97.3901 140.815 96.0545 140.815C95.6406 140.808 95.2325 140.912 94.8723 141.116C94.512 141.32 94.2127 141.616 94.0053 141.974C93.8438 141.618 93.5802 141.318 93.248 141.111C92.9158 140.905 92.5299 140.802 92.139 140.815C91.7555 140.813 91.3785 140.914 91.0479 141.109C90.7172 141.303 90.4452 141.583 90.2606 141.919V140.882H89.3946L89.4007 146.749ZM84.8083 146.14C84.5181 146.134 84.2319 146.071 83.9664 145.954C83.7008 145.837 83.4612 145.668 83.2614 145.457C83.0617 145.247 82.9057 144.999 82.8028 144.727C82.6998 144.456 82.6517 144.167 82.6615 143.877C82.6459 143.586 82.6891 143.296 82.7887 143.022C82.8882 142.749 83.042 142.498 83.2409 142.286C83.4397 142.073 83.6794 141.903 83.9456 141.786C84.2118 141.668 84.499 141.606 84.79 141.602C85.0818 141.608 85.3695 141.671 85.6366 141.789C85.9036 141.906 86.1446 142.076 86.3455 142.288C86.5464 142.499 86.7032 142.749 86.8068 143.022C86.9104 143.295 86.9587 143.585 86.949 143.877C86.9629 144.167 86.918 144.458 86.817 144.731C86.7159 145.004 86.5607 145.253 86.3608 145.464C86.1609 145.676 85.9203 145.844 85.6535 145.96C85.3867 146.077 85.0992 146.137 84.8083 146.14ZM84.8083 146.914C85.4114 146.914 86.001 146.735 86.5024 146.4C87.0039 146.065 87.3948 145.589 87.6256 145.032C87.8564 144.474 87.9167 143.861 87.7991 143.27C87.6814 142.678 87.391 142.135 86.9645 141.708C86.5381 141.282 85.9947 140.992 85.4032 140.874C84.8117 140.756 84.1985 140.817 83.6413 141.047C83.0841 141.278 82.6079 141.669 82.2728 142.171C81.9377 142.672 81.7589 143.262 81.7589 143.865C81.7589 144.673 82.0802 145.449 82.652 146.021C83.2239 146.593 83.9995 146.914 84.8083 146.914ZM78.4777 146.914C79.6365 146.914 80.5452 146.274 80.5452 145.17C80.5452 144.066 79.5755 143.749 78.679 143.48C77.8983 143.243 77.1848 143.035 77.1787 142.48C77.1726 141.925 77.6178 141.614 78.3009 141.614C78.9173 141.637 79.5151 141.831 80.0268 142.175L80.4171 141.523C79.7926 141.12 79.0684 140.898 78.3253 140.882C77.1787 140.882 76.3493 141.547 76.3493 142.553C76.3493 143.56 77.3616 143.956 78.2704 144.212C79.0388 144.426 79.7219 144.651 79.7219 145.237C79.7219 145.822 79.2218 146.182 78.5021 146.182C77.7681 146.16 77.0613 145.899 76.4895 145.438L76.0504 146.048C76.7393 146.587 77.585 146.887 78.4594 146.902M69.482 146.902C70.6408 146.902 71.5495 146.262 71.5495 145.164C71.5495 144.066 70.5798 143.743 69.6833 143.474C68.9087 143.237 68.1891 143.023 68.1891 142.474C68.1891 141.925 68.6221 141.608 69.3112 141.608C69.9257 141.631 70.5216 141.825 71.0311 142.169L71.4275 141.517C70.8025 141.11 70.0752 140.888 69.3295 140.876C68.1891 140.876 67.3535 141.541 67.3535 142.541C67.3535 143.541 68.3659 143.95 69.2807 144.206C70.0431 144.42 70.7323 144.645 70.7323 145.225C70.7323 145.804 70.2261 146.176 69.5125 146.176C68.7771 146.152 68.0692 145.891 67.4938 145.432L67.0547 146.042C67.751 146.589 68.609 146.889 69.4942 146.896M62.0476 148.622C62.9258 148.622 63.4869 148.183 63.9809 146.981L66.4204 140.974H65.4995L63.6333 145.761L61.517 140.913H60.5595L63.2063 146.707C62.8587 147.53 62.5294 147.798 61.9866 147.798C61.6683 147.808 61.3529 147.735 61.0718 147.585L60.779 148.268C61.1558 148.463 61.5744 148.564 61.9988 148.561M56.7111 146.158C55.9244 146.158 55.2535 145.731 55.2535 144.999C55.2535 144.267 55.8634 143.81 56.949 143.81C57.5229 143.81 58.0938 143.892 58.6445 144.054V144.597C58.6445 145.517 57.7784 146.158 56.7111 146.158ZM56.5465 146.853C56.9484 146.866 57.3476 146.782 57.7113 146.611C58.0749 146.439 58.3926 146.183 58.6383 145.865V146.731H59.4922V143.176C59.5116 142.864 59.4675 142.553 59.3627 142.259C59.2579 141.965 59.0944 141.696 58.8823 141.468C58.6266 141.243 58.3291 141.071 58.0068 140.961C57.6845 140.851 57.3437 140.806 57.0039 140.828C56.2698 140.827 55.5456 140.996 54.8876 141.322L55.1498 142.029C55.6989 141.76 56.3012 141.619 56.9124 141.614C58.0041 141.614 58.6383 142.151 58.6383 143.188V143.365C58.0593 143.199 57.4597 143.117 56.8575 143.121C55.3816 143.121 54.3692 143.773 54.3753 145.023C54.3814 146.274 55.4548 146.853 56.5465 146.853ZM46.9592 146.786H47.7276L49.3011 142.2L50.8624 146.786H51.6186L53.6678 140.925H52.7469L51.2283 145.591L49.6426 140.882H48.9169L47.3617 145.572L45.8309 140.901H44.9039L46.9592 146.786ZM42.5436 146.743H43.4097V138.534H42.5192L42.5436 146.743ZM37.8476 146.176C37.0608 146.176 36.3899 145.749 36.3899 145.017C36.3899 144.286 36.9998 143.798 38.0854 143.798C38.6618 143.797 39.2351 143.881 39.787 144.048V144.584C39.787 145.505 38.9209 146.152 37.8476 146.152M37.6829 146.847C38.0849 146.859 38.484 146.776 38.8477 146.605C39.2113 146.433 39.529 146.177 39.7748 145.859V146.725H40.6286V143.176C40.6495 142.864 40.6061 142.552 40.5012 142.258C40.3963 141.965 40.232 141.695 40.0187 141.468C39.7646 141.24 39.4675 141.066 39.1449 140.955C38.8223 140.844 38.4807 140.798 38.1403 140.821C37.408 140.825 36.6862 140.996 36.0301 141.322L36.2863 142.029C36.8353 141.76 37.4377 141.619 38.0488 141.614C39.1405 141.614 39.7748 142.151 39.7748 143.188V143.365C39.1965 143.196 38.5963 143.114 37.9939 143.121C36.5241 143.121 35.5117 143.773 35.5117 145.023C35.5117 146.274 36.5912 146.853 37.6829 146.853" fill="white"/>
<path fill-rule="evenodd" clip-rule="evenodd" d="M167.351 84.7733C167.451 84.606 167.514 84.4199 167.539 84.2268C167.563 84.0338 167.547 83.8378 167.492 83.6511L141.706 1.70774C141.615 1.40739 141.429 1.14461 141.176 0.958793C140.923 0.772973 140.617 0.674117 140.303 0.677042H136.357C136.126 0.673776 135.898 0.727749 135.692 0.834156C135.487 0.940563 135.311 1.0961 135.18 1.28692C135.04 1.47009 134.947 1.68476 134.909 1.91224C134.87 2.13972 134.888 2.3731 134.961 2.59206L160.747 84.5538H156.288L130.185 1.71384C130.094 1.41349 129.909 1.15071 129.656 0.964892C129.403 0.779071 129.097 0.680215 128.783 0.683141H124.837C124.605 0.680474 124.376 0.734664 124.169 0.840977C123.963 0.94729 123.786 1.10249 123.654 1.29302C123.515 1.4772 123.424 1.6921 123.387 1.91937C123.349 2.14664 123.368 2.37954 123.44 2.59816L149.269 84.5599H144.103C144.164 84.3197 144.164 84.0681 144.103 83.828L121.458 10.5327L119.122 2.95189C118.858 2.09605 118.327 1.34729 117.607 0.815424C116.886 0.28356 116.014 -0.00341797 115.118 -0.00341797C114.223 -0.00341797 113.351 0.28356 112.63 0.815424C111.91 1.34729 111.378 2.09605 111.115 2.95189L105.193 22.2058L98.7583 1.73213C98.6685 1.43227 98.4838 1.16967 98.232 0.983801C97.9801 0.797933 97.6747 0.698845 97.3617 0.701437H93.4158C93.1839 0.699296 92.9549 0.753716 92.7488 0.859984C92.5426 0.966252 92.3654 1.12117 92.2326 1.31132C92.0934 1.49496 92.0007 1.70961 91.9624 1.9369C91.9242 2.16419 91.9416 2.39735 92.0131 2.61646L101.716 33.5434L99.4902 40.7888L87.2133 1.73823C87.1235 1.43837 86.9388 1.17577 86.687 0.9899C86.4351 0.804031 86.1297 0.704944 85.8167 0.707536H81.8708C81.6387 0.704337 81.4093 0.758296 81.203 0.864654C80.9967 0.971012 80.8197 1.1265 80.6876 1.31742C80.554 1.50286 80.4676 1.71803 80.4357 1.94434C80.4038 2.17066 80.4275 2.40133 80.5047 2.61646L96.0261 52.0533L93.8 59.256L78.7665 10.5571L76.4246 2.97629C76.1607 2.12045 75.6295 1.37168 74.9089 0.839819C74.1883 0.307955 73.3163 0.0209772 72.4207 0.0209772C71.5251 0.0209772 70.6531 0.307955 69.9325 0.839819C69.2119 1.37168 68.6807 2.12045 68.4168 2.97629L43.4728 84.0902C43.368 84.4249 43.3875 84.7861 43.5275 85.1076C43.6675 85.4291 43.9188 85.6893 44.2351 85.8406L48.181 87.78C55.9175 91.5007 64.3941 93.427 72.9787 93.4153C80.1775 93.4716 87.3081 92.0172 93.9098 89.1461C100.816 91.9744 108.208 93.4247 115.67 93.4153C120.165 93.4153 153.275 94.0252 166.479 85.4869C166.783 85.4081 167.051 85.2299 167.242 84.9807C167.425 84.8648 167.4 84.8221 167.351 84.7733ZM85.1946 77.8207C85.1055 77.9932 84.9813 78.1452 84.8301 78.267C84.6789 78.3888 84.5039 78.4778 84.3164 78.5281C80.6358 79.5807 76.8251 80.1084 72.997 80.0955C68.8253 80.0973 64.674 79.5122 60.6653 78.3574C60.4802 78.3022 60.3079 78.2111 60.1581 78.0892C60.0082 77.9674 59.8839 77.8172 59.7922 77.6473C59.7004 77.4774 59.643 77.291 59.6233 77.0989C59.6036 76.9069 59.6219 76.7128 59.6773 76.5277L71.0393 39.5813C71.1328 39.2824 71.3194 39.0213 71.5717 38.8358C71.824 38.6504 72.1289 38.5504 72.442 38.5504C72.7552 38.5504 73.0601 38.6504 73.3124 38.8358C73.5647 39.0213 73.7513 39.2824 73.8448 39.5813L85.3044 76.7107C85.3656 76.8961 85.3875 77.0921 85.3686 77.2864C85.3497 77.4807 85.2904 77.6689 85.1946 77.839V77.8207ZM102.479 77.6255C102.383 77.4555 102.324 77.2673 102.305 77.073C102.286 76.8787 102.308 76.6826 102.369 76.4973L113.731 39.5386C113.824 39.2397 114.011 38.9786 114.263 38.7932C114.516 38.6077 114.82 38.5077 115.134 38.5077C115.447 38.5077 115.752 38.6077 116.004 38.7932C116.256 38.9786 116.443 39.2397 116.536 39.5386L127.996 76.668C128.053 76.853 128.073 77.0475 128.054 77.2401C128.035 77.4327 127.978 77.6197 127.886 77.79C127.794 77.9603 127.669 78.1106 127.518 78.2321C127.367 78.3536 127.194 78.4439 127.008 78.4977C123.328 79.5511 119.517 80.0768 115.689 80.0589C111.519 80.0598 107.37 79.4768 103.363 78.3269C103.174 78.2803 102.997 78.1957 102.841 78.0782C102.686 77.9608 102.557 77.813 102.46 77.6438L102.479 77.6255Z" fill="#F2CF11"/>
<path fill-rule="evenodd" clip-rule="evenodd" d="M66.9891 69.3252C66.4523 69.3264 65.928 69.4868 65.4823 69.786C65.0367 70.0852 64.6898 70.5098 64.4855 71.0062C64.2812 71.5026 64.2287 72.0484 64.3346 72.5746C64.4405 73.1008 64.7001 73.5838 65.0805 73.9625C65.4609 74.3412 65.945 74.5986 66.4717 74.7022C66.9984 74.8057 67.544 74.7507 68.0394 74.5442C68.5349 74.3377 68.958 73.9889 69.2552 73.5419C69.5524 73.0949 69.7104 72.5698 69.7092 72.0331C69.7084 71.6767 69.6374 71.3239 69.5003 70.9949C69.3631 70.666 69.1625 70.3672 68.91 70.1158C68.6574 69.8643 68.3577 69.6651 68.0282 69.5295C67.6986 69.3938 67.3455 69.3244 66.9891 69.3252Z" fill="#F2CF11"/>
<path fill-rule="evenodd" clip-rule="evenodd" d="M77.7984 69.1484C77.2496 69.1484 76.713 69.3112 76.2567 69.6161C75.8004 69.921 75.4447 70.3544 75.2347 70.8615C75.0246 71.3685 74.9697 71.9265 75.0768 72.4648C75.1838 73.003 75.4481 73.4975 75.8362 73.8856C76.2243 74.2737 76.7187 74.5379 77.257 74.645C77.7953 74.7521 78.3533 74.6971 78.8603 74.4871C79.3674 74.2771 79.8008 73.9214 80.1057 73.4651C80.4106 73.0087 80.5733 72.4722 80.5733 71.9234C80.5733 71.1874 80.281 70.4816 79.7606 69.9612C79.2402 69.4408 78.5344 69.1484 77.7984 69.1484Z" fill="#F2CF11"/>
<path fill-rule="evenodd" clip-rule="evenodd" d="M72.4156 60.6162C72.0043 60.6162 71.6022 60.7382 71.2602 60.9667C70.9182 61.1952 70.6517 61.52 70.4942 61.9C70.3368 62.2801 70.2957 62.6982 70.3759 63.1016C70.4561 63.505 70.6542 63.8756 70.9451 64.1665C71.2359 64.4573 71.6065 64.6554 72.0099 64.7356C72.4133 64.8159 72.8315 64.7747 73.2115 64.6173C73.5915 64.4599 73.9163 64.1933 74.1448 63.8513C74.3733 63.5093 74.4953 63.1072 74.4953 62.6959C74.4953 62.1443 74.2762 61.6154 73.8862 61.2253C73.4962 60.8353 72.9672 60.6162 72.4156 60.6162Z" fill="#F2CF11"/>
<path fill-rule="evenodd" clip-rule="evenodd" d="M109.687 69.3008C109.15 69.3008 108.625 69.46 108.179 69.7582C107.733 70.0564 107.385 70.4802 107.179 70.9762C106.974 71.4721 106.92 72.0178 107.025 72.5442C107.13 73.0707 107.388 73.5543 107.768 73.9338C108.147 74.3134 108.631 74.5718 109.157 74.6766C109.684 74.7813 110.229 74.7275 110.725 74.5221C111.221 74.3167 111.645 73.9689 111.943 73.5225C112.241 73.0762 112.401 72.5515 112.401 72.0147C112.401 71.295 112.115 70.6046 111.606 70.0957C111.097 69.5867 110.406 69.3008 109.687 69.3008Z" fill="#F2CF11"/>
<path fill-rule="evenodd" clip-rule="evenodd" d="M120.495 74.6739C121.045 74.6751 121.582 74.5134 122.039 74.2092C122.496 73.905 122.853 73.4721 123.063 72.9651C123.274 72.4582 123.33 71.9 123.224 71.3614C123.118 70.8227 122.854 70.3276 122.466 69.9389C122.078 69.5503 121.584 69.2854 121.045 69.1778C120.507 69.0702 119.948 69.1248 119.441 69.3347C118.934 69.5445 118.5 69.9002 118.195 70.3567C117.889 70.8131 117.727 71.3499 117.727 71.899C117.727 72.6339 118.018 73.3388 118.537 73.859C119.056 74.3792 119.761 74.6723 120.495 74.6739Z" fill="#F2CF11"/>
<path fill-rule="evenodd" clip-rule="evenodd" d="M117.195 61.598C117.195 61.1867 117.073 60.7846 116.844 60.4426C116.616 60.1006 116.291 59.834 115.911 59.6766C115.531 59.5192 115.113 59.478 114.709 59.5583C114.306 59.6385 113.935 59.8366 113.644 60.1274C113.353 60.4183 113.155 60.7889 113.075 61.1923C112.995 61.5957 113.036 62.0138 113.193 62.3939C113.351 62.7739 113.617 63.0987 113.959 63.3272C114.301 63.5557 114.704 63.6777 115.115 63.6777C115.666 63.6777 116.195 63.4586 116.585 63.0686C116.975 62.6785 117.195 62.1496 117.195 61.598Z" fill="#F2CF11"/>
</svg>
